<svg id="Layer_1" data-name="Layer 1" xmlns="http://www.w3.org/2000/svg" viewBox="0 0 566.93 566.93"><title>Artboard 1</title><path d="M393.93,97.68a58.26,58.26,0,0,1,13.68-17.4,5.64,5.64,0,0,0,2.32-5.69c-1-6.11,2.67-9.42,7.83-11.19,9.54-3.28,17.66-.5,25.71,5.28,17.8,12.79,30.86,30.69,48.38,43.85,10.24,7.7,9.8,12.76,1.94,23a20.87,20.87,0,0,0-2.5,5.26c-1.26,3.31-2.74,6.61-5.55,8.77-15.53,11.92-31.36,23.75-52.42,21.91-11.14-1-19,2.94-26.14,11.16-25.91,29.81-55.53,56.21-80.59,86.83-1.34,1.64-3.6,3-2.11,5.57,3,5.17.28,9.27-2.43,13.27a64.61,64.61,0,0,1-15.4,16c-3.74,2.74-4,5.11-.8,8.42,9.86,10.21,19,21.09,29.77,30.43,9.29,8.09,9.35,12.83.07,21.27-22.79,20.73-45.51,41.53-71.56,58.31a82.85,82.85,0,0,0-14.94,12.74c-10.21,10.77-23.35,14.53-37.26,15.32-22.05,1.25-44.07-1.09-66.05-2.71-10.63-.79-13.53-6.29-12.63-17.21.87-10.64.82-21.39.72-32.09a214.37,214.37,0,0,1,1.29-24.18,42.5,42.5,0,0,1,12.34-26.12c16.38-16.68,33-33.19,48.64-50.53,13.45-14.9,25.7-30.86,39.58-45.43,5.57-5.85,10.67-6.58,15.72-.19,6.24,7.89,14.92,13.44,20.54,21.92,2.14,3.22,4.66,2.74,6.73-.31,3.44-5.05,6.78-10.17,10.25-15.2,3-4.3,6.41-7.87,12.35-6.89,2.29.38,3.63-1,4.94-2.55,26.69-31.29,57.17-59,84.33-89.87,4.37-5,5.88-8.78,3-15.49-5.51-12.86-4.16-26.47-1-39.87.49-2.12.88-4.27,1.32-6.4ZM274.38,316.9l3-3c8.95-9,20.11-15.35,28.86-24.57,7-7.34,7-7.28.52-14.68-1.86-2.14-3.75-4.26-5.42-6.55s-3.07-2.62-4.77.11c-8.79,14.12-20.09,26.33-30.24,39.41-4.94,6.37-8.69,13.36-9.4,22.6C264.48,327.13,269.48,322.08,274.38,316.9ZM215.72,372l-1.56-1.54c-.18-6,2.9-10.3,6.9-14.28,6.84-6.8,14.78-12.46,20.52-20.41,1.81-2.51,3.54-4.67,4-8,1.21-9.28,5.28-17.4,10.49-25.14,3.7-5.49,12.17-9.86,10.46-16.28-1.61-6-8.41-10.81-13.23-15.86-9.75-10.23-10.2-10.46-19.43.45Q197,314.51,156.94,355.1c-6.11,6.19-10.29,13.62-11.1,22.51-1.66,18.31-.31,36.67-.64,55-.07,3.89,3.05,4.3,6,4.52,20,1.48,40,2.8,60.14,2.73,4.75,0,6.54-2,6.49-6.72-.13-12,.09-24,.18-36.06a50.79,50.79,0,0,1,.12-5.24c.25-2,.89-4.18,3.34-4.15s3.16,2.16,3.45,4.15a38.41,38.41,0,0,1,.25,5.88c0,10.93-.18,21.86-.17,32.79,0,2-1.11,5.3,1.73,5.53,3.42.27,2.83-3.22,2.85-5.48.1-15.52.06-31,.17-46.55,0-3.31-1.27-8.61,3.19-8.66,4.82-.05,3.83,5.41,3.86,8.92.1,15,0,30,0,45.06,2.42-.33,3.63-1.63,3.81-4.25a302.49,302.49,0,0,0-1.58-56.76c-.42-3.5-2.49-9.7,2.25-10.12,5.12-.45,4.21,6,4.71,9.83,2,15,1.19,30.1,1.38,45.16,0,2.25-.92,4.77,1.18,7,3.83-2,6.59-3.8,4-9-1.25-2.49-.57-6-.55-9.05.12-14.41.26-28.8-2.38-43.09-.63-3.45-2.58-9.5,2.31-10.07s4.22,5.55,4.53,9.23c1.37,16.31,3.27,32.59,2.75,49-.14,4.17,1.37,4.67,4.49,2.36,5.26-3.9,10.62-7.68,15.77-11.73,16-12.55,31.61-25.56,46.08-39.87,1.9-1.88,5-3.73,1.8-7-10.77-10.87-21.6-21.67-32.34-32.56-2.4-2.44-4.13-1.32-6.07.51-4.43,4.22-8.88,8.42-13.41,12.53-6.37,5.78-12.85,11.36-22.33,10.78-1.61-.1-2.88.85-4,1.91-7.85,7.18-15.51,14.56-22.21,22.84C224,370.71,220.62,372.9,215.72,372ZM436.39,160.4c15.48-.73,28.07-8.86,40.24-17.94,2.57-1.92,2.87-3.57-.6-5-3.29-1.36-5.65-4.06-8.09-6.55-4.72-4.84-9.07-10.23-15.45-13A81.14,81.14,0,0,1,420,93.23c-4.38-5.58-6.44-5.25-10.15.86-7.66,12.6-10.63,26.16-7.36,40.76.47,2.05.53,4.87,2.7,5.69,2.78,1.06,4-2,5.74-3.44s3.44-3.39,5.41-4.71c5.27-3.52,10.6-3,14.17,1.16,4.4,5.1,5.19,15.16,1.81,21-.92,1.59-3.81,2.74-2.52,4.78S433.89,160,436.39,160.4ZM423.1,145.91c-.11-.3-.21-1.32-.76-1.78-1.08-.89-2.07,0-2.86.74-2.92,2.62-6.06,5.07-8.61,8-7.57,8.74-14.19,18.42-22.45,26.43-22.27,21.59-42.92,44.71-64.49,67A114.9,114.9,0,0,0,314.44,258c-1.44,2-4.18,4.53-1.17,6.76s3.8-1.72,5.16-3.21c16.05-17.56,31.08-36.17,48.22-52.58,18.66-17.86,34.86-37.88,52.85-56.27A12.16,12.16,0,0,0,423.1,145.91Zm4.23-72.72c-2.28.12-4-.28-4.86,1.42a4.55,4.55,0,0,0,1.11,5.44c7.91,7.37,13.26,17.33,23.51,22.4s19.86,11,27.54,19.67a24.88,24.88,0,0,0,6.29,4.62,4.22,4.22,0,0,0,5.45-.55c1.95-2.1.1-3.65-1.25-5a53,53,0,0,0-6.9-6,100,100,0,0,1-22.33-20.91C449.52,86.28,440.4,81,432.08,75,430.56,73.93,428.48,73.61,427.33,73.19Z"/><path d="M360.29,487.81c16.73,3,32,1.38,47-3.32,1.25-.39,2.5-.78,3.78-1.05,1.83-.39,3.67-.2,4.5,1.69,1.06,2.4-.77,3.64-2.5,4.61a23.38,23.38,0,0,1-4.25,1.69c-18.82,6.07-38,4-57.13,2.35-1.21-.1-3.31-.85-3.39-1.48-.86-7.32-6.42-4.32-10.28-4.83-18.95-2.49-37.91,1.5-56.87,0-4.62-.37-9.08.83-13.59,1.69-5.58,1.07-8.28-1.38-8.15-7,.09-3.71.4-7.42.37-11.12-.17-19.9,14.6-35.16,34.85-35.07,6.76,0,12.08-1.05,16.77-6.38a22.77,22.77,0,0,1,19.89-8.08c2.68.26,3.71-.86,4.77-3.22,6.08-13.51,15.32-19.21,27.4-17.26,12.8,2.07,21.37,11.57,23.11,25.6.26,2.16,1.31,4.57.71,6.45-3.07,9.58,2.3,13.37,10.08,16.17a19.79,19.79,0,0,1,8.8,6.64c6.54,8.39,5,15.88-4.14,21.19-11.43,6.62-23.9,9.26-36.89,10.12C363.86,487.28,362.63,487.51,360.29,487.81Zm-28.47-12.65c5.17-2.61,6.68-7.45,8.63-11.93,1.66-3.79,2.64-7.87,4.4-11.59,1-2.06,2.92-4.56,5.63-3.22,3.13,1.55,1,4,.18,6.2-2.69,7-5.31,14-8,21.27,4.05.67,4.64-1.82,5.54-3.66a62.61,62.61,0,0,0,5.05-13.45c.63-2.74,1.27-5.57,3.16-7.83.86-1,1.9-1.9,3.37-1.5s1.62,1.85,1.78,3.14c.41,3.39-1,6.41-1.89,9.55-1.34,4.54-4.09,8.68-3.88,13.74,2.22-6,6.57-10.76,9-16.58.78-1.88,1.84-3.93,4.23-3s2.84,3.4,1.88,5.55c-1.4,3.17-3.37,6.08-4.89,9.21-.67,1.38-2.69,3.18-.53,4.48,1.46.88,3.39-.2,4.61-1.63,2.77-3.22,3.91-7.26,5.6-11,.95-2.11,2-5.06,5.07-3.8,2.86,1.17,1.82,4.05,1.35,6.36-.53,2.64-2.85,4.82-2.38,8.5,5.69-2.22,10.94-4.19,16.12-6.32,3.16-1.3,3.25-3.48.76-5.46-5-4-10-7.68-17.05-7-5.48.55-7.68-2-6.79-7.39a23.23,23.23,0,0,1,1.6-5,24.4,24.4,0,0,0,1.19-15.36c-2.46-10.81-8.64-16.6-17-15.18-9.37,1.59-14.22,9.38-12.4,20.27.58,3.5,2,7.28-2.13,9.26-4.26,2-6.83-1.07-9.23-4.1-5.47-6.89-9.46-7-15.28-.39a28.61,28.61,0,0,1-3,3.47c-6.39,5.18-11.66,14.23-22,6.63-.59-.43-1.7-.27-2.56-.2-10.82.84-21.75,12-22.09,22.66-.13,4,1.15,6.83,5.9,6.76q15.74-.24,31.46-.25c2.64,0,3.94-.74,4.26-3.57.48-4.2,2.51-7.88,4.82-11.36,1.27-1.91,2.4-4.91,5.42-3.12,2.8,1.65,1.13,4.29.28,6.44S320,469.1,319,471.29c-.52,1.15-1.52,2.56-.13,3.52s3,.48,4.28-.49a11.18,11.18,0,0,0,3.49-5.44c1.65-4.51,3.08-9.09,4.85-13.55,1-2.66,2.86-6,5.9-5.06,3.51,1.13,1.88,4.84,1,7.34C336.4,463.52,334,469.32,331.82,475.16Z"/><path d="M124.09,380.8c0,1.09.08,2.19,0,3.27-.34,4.09-1.38,8.19-5.6,9.57-4.67,1.52-6.75-2.68-8.2-5.84-7.81-17-19.83-30.64-33.25-43.31-7.94-7.5-11.19-16.89-10.19-27.83.76-8.22,6-15.93,13.13-18,8.23-2.35,15,.37,20.41,6.79a59.54,59.54,0,0,1,10.29,18.85C117.14,342.69,120.8,361.71,124.09,380.8ZM109,360.34c-2-8-3.77-16-6-23.9-2.32-8.21-5.49-16.11-10.86-22.88-2.06-2.59-4.44-5.1-8.26-4-3.66,1.07-4.75,4.36-5.38,7.57-.42,2.18-1,4.65.94,7.14.53-1.28.89-2.25,1.34-3.18,1.22-2.52,2.35-6.11,5.86-4.55s1.51,4.89.77,7.53c-.81,2.94-2.9,5.62-2,10.64,1.18-3.57,1.79-5.59,2.52-7.57.79-2.16,2-4.23,4.67-3.45,2.23.64,2.73,2.74,2.16,4.83-.65,2.38-.67,4.17,2.13,5.2a3.3,3.3,0,0,1,1.9,4.39C94.54,348.61,102.75,354,109,360.34Z"/><path d="M362,384.48c-6-1.08-12.26,1.86-14-5.26s3.34-10.42,8.56-13c17.26-8.45,35.05-14.57,54.72-10.51,6.11,1.26,11.62,3.84,15.81,8.59,4.52,5.12,3.2,11-3.07,13.76-2,.88-4.17,1.82-6.24,1.78C398.54,379.48,379.53,381.72,362,384.48Z"/><path d="M80.26,383.76a20.81,20.81,0,0,1,11,4.28c6,4.63,9.91,10.89,13.54,17.36,1.22,2.18,1.56,4.72-.18,6.75-2,2.29-4.7,2.38-7.17,1-8.15-4.56-16.21-9.33-23.23-15.51-2.63-2.32-4.2-5.76-2.59-9.46S77.08,384.31,80.26,383.76Z"/><path d="M188.59,468.09c-5.63-.29-11.32.52-16.88-1.12-2.11-.63-4.22-1.22-5.77-2.84-1.06-1.1-2.07-2.41-1.17-4.06a3.11,3.11,0,0,1,4-1.4c18.89,5.74,37.4,1.48,55.94-2.08,3.65-.7,8.93-3.47,10.12,1.52,1.13,4.71-4.76,4.5-8.11,5.21C214.13,466,201.57,468.71,188.59,468.09Z"/><path d="M402.79,200.78a16.7,16.7,0,0,1-4.69,7.77c-13.73,12.51-26.74,25.69-37.82,40.67-1.07,1.46-2.59,2.61-4.49,1.6s-1.74-3-1.09-4.63a21.19,21.19,0,0,1,3.23-5.62,399.88,399.88,0,0,1,38.4-40.23c1.44-1.3,2.73-3,5.06-2.19A2.19,2.19,0,0,1,402.79,200.78Z"/><path d="M138.52,331.89c-.07,2.62,0,6.38-3.5,8.91-2.61,1.91-1.49,4.77-1.84,7.25s-.43,5.29-3.57,5.29c-2.63,0-3.24-2.61-3.55-4.79-2-13.74-1.12-27.81-4.86-41.36a2.61,2.61,0,0,1,1.93-3.56,3.47,3.47,0,0,1,4.12,2.48c1.29,3.9,2.16,7.93,3.27,11.9.25.9-.25,2.9,1,2.56,9.82-2.78,5.35,5.47,7,8.92C138.67,329.85,138.52,330.35,138.52,331.89Z"/><path d="M462.29,177.46c-1.85-.18-4.47,0-4.86-2.18-.5-2.91,2.27-4.23,4.51-4.75,12.09-2.84,19.32-12.22,27.55-20.22,2.32-2.26,4.43-4.76,5.34-8.11.56-2.1,1.65-4.46,4.55-3.23,2.69,1.13,2.1,3.48,1.39,5.64-.48,1.45-.75,3.09-1.62,4.26-8.67,11.64-18.33,22.17-32.31,27.58A29.71,29.71,0,0,1,462.29,177.46Z"/><path d="M236.67,241.47a13.44,13.44,0,0,1-2.67,6.62q-8,10.4-16.15,20.61a13.23,13.23,0,0,1-3.52,2.86c-1.57,1-3.4,1.36-4.8-.19a3.24,3.24,0,0,1,.38-4.73c8.6-7.92,14.48-18,21.55-27.11a2.92,2.92,0,0,1,3.44-1.21C236.4,238.84,236.68,240.08,236.67,241.47Z"/><path d="M394,97.61c-2.55,4.69-3.38,9.77-3.52,15-.05,2.11.23,4.76-2.75,5.08s-3.84-2.23-3.88-4.3c-.22-10.19,2.63-19.67,7.4-28.58a2.68,2.68,0,0,1,3.89-1.21c1.61.9,1.74,2.38,1.36,4-.82,3.37-1.69,6.72-2.54,10.09Z"/><path d="M191.9,478.45c-1.92-.33-5.18-.69-8.33-1.5-2.25-.57-5.18-1.31-4.6-4.46.49-2.69,3.22-2.53,5.38-2.48a48.19,48.19,0,0,1,5.17.69c4.34.62,8.64,1,12.81-1,2.23-1.07,4.95-1.92,6.22,1,1.42,3.28-1.36,4.79-3.79,5.71A35.65,35.65,0,0,1,191.9,478.45Z"/><path d="M383.14,507.4c-5.65-.29-9.95-.89-13.91-2.85-1.81-.9-3.49-2.24-2.51-4.59.8-1.91,2.72-2.26,4.45-1.6,6.61,2.51,13.22,1.61,19.9.44,1.78-.31,4.35-.7,5.11,1.64.87,2.72-1.56,4-3.54,4.61C389.17,506.19,385.53,506.83,383.14,507.4Z"/><path d="M399.61,428.39c0,2.17.08,4.34,0,6.51-.11,2.44-.4,5.36-3.38,5.47-3.61.14-3.54-3.25-3.75-5.73-.24-2.8,0-5.64,0-8.46,0-2.59.07-5.2-1.28-7.6-1.14-2.05-1.82-4.27,1.08-5.37,2.41-.9,4.18.48,5.4,2.49C400.09,419.65,399.6,424.07,399.61,428.39Z"/><path d="M215.72,372a6.56,6.56,0,0,1,.17,1.95c-3.89,18,.68,36.47-2.53,54.55-.68,3.83.68,10.18-4.66,9.66-4.82-.47-2.65-6.45-2.2-10.06,1.59-12.84.54-25.7.69-38.55,0-1.39,0-3.93-2.27-2.54-2.52,1.53-7,3.52-5.34,6.9,6.32,12.78,1,25.75,1.45,38.58.08,2.58-1.15,6.51-4.67,5.93s-2.91-4.31-2.41-7.09c1.72-9.51,1.43-19.1,1.47-28.69,0-3.16-.18-4.79-4.34-3.7-5.25,1.38-9.44-3.33-6.63-7.39a57.78,57.78,0,0,1,25.82-21.24c1.09-.45,2.58.08,3.89.15Z"/><path d="M274.38,316.9c-2.22.2-4.6,2.86-6.58.39-2.26-2.8.62-4.86,2.13-6.67,3.48-4.14,7.27-8,11-11.92,1.45-1.51,3.14-3.65,5.47-1.66,2.52,2.16.56,4.32-.66,6.31-2.37,3.88-6.84,6.09-8.43,10.59C276.36,314.93,275.37,315.92,274.38,316.9Z"/><path d="M148.1,389.09a52.93,52.93,0,0,1,10.54-26.62c6.31-8.32,12.78-16.52,19.3-24.68,1.57-2,3.67-4.83,6.41-2.62,3,2.45.48,5-1.23,7.27-5.83,7.59-11.41,15.4-17.59,22.7-5.87,6.94-8.7,14.92-10,23.67,0,.22,0,.44-.07.65-.66,2.69-.83,6.54-4.35,6.28C147.25,395.45,148.74,391.39,148.1,389.09Z"/><path d="M241,279.42a11.79,11.79,0,0,1-1.69,3.14Q224.45,299,209.46,315.34c-1.62,1.77-3.94,2.62-5.86,1.1-2.47-1.95-.37-4.12.91-5.61,9.77-11.41,20.79-21.7,30.13-33.51,1.24-1.56,3-2.64,5.18-1.53C240.88,276.33,241.42,277.23,241,279.42Z"/><path d="M273,379.61c.17-10.1-2.35-19.89-3.37-29.85a52.44,52.44,0,0,1-.35-6.5,2.94,2.94,0,0,1,5.8-.68,63.13,63.13,0,0,1,2.21,10.18c1.13,11.71,2.05,23.43,2.88,35.17.18,2.44.78,6-3,6-3.16,0-3.86-3.17-4.08-5.82C272.81,385.3,273,382.45,273,379.61Z"/><path d="M268.42,381.13c0,6.54.05,11.35,0,16.15,0,2-.28,4.32-2.93,4.25-2.49-.06-3-2.26-3-4.3-.1-5.46-.24-10.93-.05-16.39a95.82,95.82,0,0,0-2.81-25.31,27.71,27.71,0,0,1-.91-5.14c-.09-2.28.42-4.69,3.1-5,2.86-.37,3.65,2,3.9,4.27C266.89,360.68,269.48,371.62,268.42,381.13Z"/><path d="M292.88,375.71c-.24,2.8-.42,5-3,5.21s-3.48-1.82-3.83-3.76c-1.38-7.48-2.57-15-3.79-22.5-.79-4.94-1.47-9.89-2.27-14.83-.37-2.22-1-4.69,2-5.31s3.78,2.05,4.16,4.06C288.58,351.18,290.76,363.83,292.88,375.71Z"/><path d="M298.24,337.88q1.86,12.93,3.71,25.86a23.52,23.52,0,0,1,.53,4.54c-.16,2.58,1.19,6.55-3.1,6.58-3.59,0-3.78-3.6-4.15-6.42q-1.43-11-2.8-22c-.46-3.67-.94-7.34-1.32-11-.23-2.14-.8-4.81,2.26-5.23s3.16,2.37,3.82,4.38c.33,1,.61,2.08.92,3.12Z"/><path d="M298.11,337.66c.05-2-.07-4.24,2.28-4.89s3.4,1.52,4.22,3.22c3.6,7.46,6.95,15,7.06,23.52,0,2.17,1.23,5.57-1.95,6.08s-4.05-2.93-4.63-5.35c-1.83-7.6-3.5-15.24-6.85-22.37Z"/></svg>