<svg id="Layer_1" data-name="Layer 1" xmlns="http://www.w3.org/2000/svg" viewBox="0 0 566.93 566.93"><title>Artboard 1 copy 2</title><path d="M223.61,79.85c21.55.7,42.83-2.3,64.19-4.38,20.48-2,40.95-1.66,61.18,2.45,12,2.44,22.34,7.4,26.63,20.17,7.74,2.49,11.86,11.84,20.54,11.78,5.07,0,10.12.14,15.12.55,10.93.89,14.31,4.14,13,14.88-2,16.25,1.49,32.35.22,48.52-.22,2.92,0,5.89-.47,8.77-3.13,19.23-11.48,26.92-31.52,27.9-23.4,1.14-46.82,1.82-70.24,2.38-7.78.18-15.59-.66-23.38-1a40.75,40.75,0,0,0-4.69.06c-14.33,1-19,5.66-19.78,20-.32,6.24,0,12.51-.12,18.76-.08,3.37,1,5,4.63,5.07,5,.09,9.25,2.2,11.16,7.12,1.11,2.88,3,2.64,5.11,2.15,4.38-1,8.72-2.2,13.11-3.1,6.73-1.39,8.73,1.12,7.63,7.93a294.32,294.32,0,0,0-3.54,60c1.23,27.83,7.83,54.81,11.38,82.25,1,7.91,4.89,15.26,4.91,23.42,0,13.36-.92,26.52-7.23,38.68s-16.6,18.27-29.79,18.62c-14.29.39-28.56-1.11-41.47-8.13-18-9.81-26-26.32-29.32-45.63-4.08-24-1.74-47.79,2.64-71.54a344.6,344.6,0,0,0,5.25-57.05c.2-12.64-.85-25.29-7.78-36.75-3.72-6.16-1-9.61,6.33-8.9A80.41,80.41,0,0,1,238.8,267c3.28.8,4.84.11,5.89-3.43,2.4-8.08,6.33-11,14.63-10.45,5.78.39,6.23-2.24,5.55-6.66-1.31-8.42.06-16.77,1.23-25,1.35-9.57,7.48-15,16.71-17.42,10.39-2.73,20.94-2.58,31.45-1.81a218,218,0,0,0,34.47-.12c13.41-1.13,26.95.25,40.38-1.39,3.29-.4,6.61-.6,9.85-1.21,9.5-1.8,13.83-7,15.4-16.64,2-12.14.14-24.17-.4-36.21-.28-6.45-1-12.83.16-19.24.75-4.21-.49-6.86-5.23-7.13-2.72-.16-5.42-.9-8.12-.9-5.82,0-11.27.37-12.3,8.21-.5,3.81-3.65,5.93-7.77,5.65-3.65-.25-5,1.58-5.86,5-3.62,14-12.27,22-27,24.89a403.22,403.22,0,0,1-59.79,6.85c-15.79.7-31.53,2.54-47.37,1.82-22.61-1-45.23-2-67.81-3.48-13.63-.91-20.58-7.47-23.71-21.14-.84-3.66-2.38-5.61-6.26-6.47-8.09-1.78-11.31-6.51-11.29-15.31,0-9.05,4-15.18,11.6-16.69,2.75-.56,3.87-1.72,4.77-4.17,7-19,13.4-23.59,33.45-23.52C195.52,81,209.52,78.79,223.61,79.85ZM229,421.15c.41-4.84.72-9.69,1.23-14.51.93-8.73,1.91-17.45,3-26.16.23-1.78.35-4.43,3-4.25,3,.21,2.64,2.88,2.76,5a13.05,13.05,0,0,1,0,2.34c-.94,8.53-2,17.05-2.85,25.58-1.94,18.87-.66,37.1,10.65,53.34.75,1.07,1.75,2.84,1.36,3.67-2.41,5.1,1.67,6.43,4.58,8.32,6,3.87,12.76,5.83,19.66,7.34,1.29.28,2.82.76,3.83-.55,4.38-5.67,11.11-7.75,17.05-10.93,6.53-3.49,13.42-6.32,20.18-9.4,2.4-1.1,4.26-3,3.17-5.46-1.43-3.23-3.64-.38-5.21.33-6.75,3.08-13.38,6.41-20.07,9.64-1.83.88-3.92,1.64-5.21-.5s.58-3.7,2.13-4.78a40.57,40.57,0,0,1,5.68-3c5.63-2.71,11.32-5.3,16.92-8.08a37.09,37.09,0,0,0,5.93-3.76,4,4,0,0,0,1.08-5.29c-1.15-1.9-2.83-.18-4.05.49-4.61,2.55-9.1,5.33-13.72,7.87-2.22,1.22-5.06,4.14-7,.71-1.77-3.09,1.7-4.62,3.93-6.1.81-.53,1.75-.88,2.6-1.36,5.27-3,10.48-6.08,15.84-8.9,3.39-1.79,2.18-4.47,1.16-6.51-1.39-2.77-2.94,0-4.19.66-4.14,2.19-8.1,4.73-12.26,6.88-2.12,1.1-5,3.16-6.68.12-1.39-2.52,1.47-4.2,3.32-5.43,4.87-3.24,9.69-6.64,15.39-8.38,3.28-1,2.91-3.85,2-5.74-1.16-2.51-3-.18-4.31.51-4.13,2.2-8.07,4.76-12.23,6.89-1.73.9-4,1.15-4.95-1.33-.75-2.07.72-3.29,2.5-4,5.18-2,9.33-5.67,14-8.54,1.88-1.15,4.92-2,3.16-5.14-2-3.47-4.17-.35-5.85.49-4.71,2.34-9.15,5.2-13.77,7.73-1.77,1-3.94,1.53-5.35-.38-1.67-2.27.47-3.57,1.94-4.72a34.7,34.7,0,0,1,5-3.09c4.63-2.51,9.29-5,14-7.4,2.13-1.09,2.84-2.53,1.68-4.73-1.24-2.37-2.93-1.34-4.46-.52-6.55,3.46-13.85,5.42-19.85,10-1.43,1.09-3.21,2.15-4.63.25s.05-3.31,1.22-4.65c2-2.27,4.69-3.48,7.32-4.78,5.25-2.59,10.52-5.16,15.78-7.75,2.08-1,3-2.93,2-4.86-1.32-2.53-3.06-.23-4.35.39-4,1.93-7.94,4.2-11.94,6.24s-8,4-12.14,5.87c-1.64.73-3.62.93-4.54-1.17-.77-1.77.57-3.05,1.86-3.87a46.39,46.39,0,0,1,6.22-3.23,129.77,129.77,0,0,0,21-11.54c2.18-1.47,3.83-3.53,2.45-5.83-1.76-2.94-3.71,0-5.27.85-7.33,4.1-14.54,8.42-21.83,12.6-2.14,1.23-4.84,3.28-6.53,0-1.47-2.87,1.84-3.77,3.54-5.1a28.46,28.46,0,0,1,4-2.4,185,185,0,0,0,22-13.5c1.27-.94,3.84-1.73,2.43-3.86s-3.24-.17-4.66.57c-6.76,3.51-13.41,7.23-20.18,10.73-1.69.88-3.9,1.81-5.24-.39s.46-3.65,2.05-4.81c5.25-3.82,11.17-6.41,17-9.24,3-1.46,6-2.85,8.85-4.57s2.24-4.53.91-6.74c-1.82-3-3.43,0-4.65.87-6.13,4.26-12.82,7.46-19.47,10.75-1.72.86-3.58,2.52-5.11.24-1.33-2,.09-3.86,1.71-5a31.12,31.12,0,0,1,6.13-3.35,74.55,74.55,0,0,0,14.81-8.26,15.22,15.22,0,0,0,6.15-7.63c.35-1.09.74-2.49-.23-3.31s-2.16.19-3.1.78c-5.64,3.51-11.21,7.15-16.93,10.52-2.71,1.61-6.59,4.94-8.7,1.41-2.25-3.75,3-5,5.42-6.74,6.36-4.51,13.88-7.24,19.79-12.49,1.93-1.71,4.37-3.25,3.68-7.19-2.67,2-4.83,3.56-7,5.15-6,4.38-12.26,8.39-19.34,10.89-2.16.77-4.55,1.17-5.51-1.43-.86-2.36,1.15-3.53,3.08-4.18,8.32-2.77,14.73-8.77,22.21-12.9,6.84-3.78,7.68-9.24,7.46-15.81-1.86-.13-2.72,1.09-3.8,1.86-6,4.31-12,8.73-18.12,12.94-1.74,1.2-4.11,2.31-5.62-.28-1.31-2.26.74-3.66,2.23-4.78,4.23-3.15,8.65-6,12.88-9.18,3.91-2.92,7.74-6,11.45-9.14,2.18-1.87,3.6-4.55,2.42-7.32-1.34-3.15-4.08-1.08-6.18-.73-19.91,3.35-39.85,5.41-60,1.78-4-.72-4.35.85-3.32,4.18,2.87,9.24,3.58,18.89,3.31,28.38a523.85,523.85,0,0,1-4.92,54.76C231.19,383,228.68,402,229,421.15ZM193.38,158.93c2.07-.48,2.19-2.24,2.51-3.66,1.72-7.81,3.33-15.64,5-23.46.47-2.24.51-5.41,3.54-5.1,2.77.29,3,3.34,2.83,5.7a40.55,40.55,0,0,1-1.24,6.3c-1.3,5.5-2.7,11-4,16.5-.42,1.82-1.39,4.39,1.2,5,2.75.62,2.78-2.34,3.08-4.05,1.54-8.74,6.34-16.89,4.56-26.29-.35-1.82.19-4.79,2.91-5.06,3-.29,2.9,2.61,3.43,4.58a19.42,19.42,0,0,1,.12,7.56c-.79,6.24-2.82,12.15-4.56,18.15-.52,1.79-2.4,4.46.67,5.41,3.24,1,3.55-1.66,3.91-4.2,1.42-9.81,5.75-19.1,5.09-29.3a2.9,2.9,0,0,1,2.68-3.3c2.25-.12,3,1.7,3.19,3.48a34.88,34.88,0,0,1-.5,11.65c-1.53,6.25-2.88,12.54-4.29,18.82-.3,1.3-1,2.64.52,3.73,3.34,2.45,11.76-.21,13.08-4.29,2.65-8.17,5.47-16.31,4.78-25.15-.19-2.45-.34-5.93,2.94-6.08s3.32,3.35,3.44,5.77a31.71,31.71,0,0,1-.54,8.14c-1.29,6.11-2.92,12.14-4.41,18.2-.31,1.25-1.19,2.65.9,3.36,1.88-1.19,1.76-3.29,2.36-5.09,2.6-7.82,3.29-16,4.73-24.06.41-2.26,1.07-5.31,4.13-4.55,2.85.71,2.32,3.62,1.87,6-1.43,7.47-2.94,14.93-4.21,22.43-.31,1.82-2.45,4.44.76,5.53s4.43-1.5,5.24-4.06c2.4-7.63,4.95-15.23,5-23.37,0-2.17,0-4.84,3-4.72,2.7.11,3,2.72,3.16,4.88a22.93,22.93,0,0,1-.35,3.48c-.62,7.05-3,13.72-4.57,20.55-.32,1.34-.78,2.94,1.24,3.21,1.62.22,1.62-1.33,1.87-2.42,2-8.52,5.76-16.62,5.46-25.67-.08-2.56.28-6.58,3.6-6.37,3.85.24,2.62,4.44,3.05,7.13a7.66,7.66,0,0,1-.27,1.73c-.53,7.28-2.86,14.13-5,21-.32,1-1.25,2.52.1,3.13,1.74.79,2.32-.85,2.69-2.19,2.75-10.16,7-19.92,8.24-30.48.22-1.9-.12-4.39,2.67-4.35,3.13,0,2.76,2.76,2.82,4.83.24,8-3.13,15.22-5.11,22.74-.8,3.06-2.64,6-1.91,9.3,3.82.37,5.5-1,6.36-4.6,2.21-9.29,5.89-18.2,7.12-27.76.24-1.8.87-3.78,3-3.74,2.48.06,3.16,2.35,3,4.27a45.29,45.29,0,0,1-1.51,8.61c-1.67,6.42-3.53,12.8-5.31,19.19-.43,1.54-1.11,3.22,1.39,3.52,1.32.16,3.1.41,3.15-1.57.24-8.35,5.78-15.29,6.14-23.6a58.08,58.08,0,0,1,.8-7c.3-1.78.92-3.68,3.18-3.48s2.76,2,2.88,3.85a17.46,17.46,0,0,1-.31,4.07c-1.29,7.48-2.09,15.07-5.8,22-.86,1.61-2.25,4.58.5,5.48,2.95,1,2.93-2.31,3.68-4.17,3.34-8.41,5-17.2,6.19-26.13.37-2.85.89-7,4.35-6.45,3.67.62,2.36,4.9,1.84,7.52-1.59,8-3.66,16-5.41,24-.28,1.27-1.8,3.32.54,3.9a3.53,3.53,0,0,0,4.25-2.32c1.33-3.86,2.49-7.79,3.85-11.65,1.76-5-.75-10.11.41-15.09.46-1.94.29-5,3.21-4.75,2.67.19,2.79,3,2.82,5.09.07,7.78,1,15.67-2.57,23.06-.48,1-1.34,2.31.2,3,1.19.52,2.34-.38,2.88-1.45a27,27,0,0,0,1.91-4.89c2.18-7.91,4.08-15.87,4-24.17,0-2,.38-4.28,2.87-4.38s3,2.32,3.16,4.2a24.5,24.5,0,0,1-.21,6.4c-1.24,7.36-2.66,14.69-4.05,22.22,3.4-.22,4.5-2,5.18-4.52a60.13,60.13,0,0,0,2.55-19.06c-.15-3.27-1.23-8.54,3.39-8.5,3.35,0,2.69,5.24,3,8.42.64,6.79-1.58,13.29-2.47,20.27,5.88-3.18,8.55-6.61,10-12.78,2.26-9.65.93-19.47,1.15-29.2.25-10.45-2.2-14.1-11.95-17.56-16.65-5.92-33.94-7.12-51.41-5.67-23.71,2-47.31,5.4-71.17,5.31-18.56-.08-37.11.06-55.64,1.19-7.38.45-13.58,2.73-16.39,10.07-6.47,16.94-3.89,33.76,1.32,50.45.34,1.08,1,2.49,2.25,2.43,1.73-.09,1.81-1.91,2.07-3.14,1-4.58,1.73-9.2,2.55-13.81.36-2-.25-5.05,2.71-5,3.25.06,2.67,3.2,2.85,5.44.48,5.78-2.17,11.08-2.62,16.72-.12,1.54-.73,3.42,1.45,3.81,2.63.47,2.58-1.66,2.77-3.43.93-9.08,5.12-17.62,4.29-27-.14-1.64.65-3.68,2.91-3.77s2.93,1.75,3.24,3.51a11.92,11.92,0,0,1-.06,4c-1.26,7.3-2.66,14.58-3.91,21.88-.29,1.7-2.14,4.14.87,4.91,3.28.84,3.8-2.07,4.23-4.34,1.54-8.21,4.45-16.19,3.93-24.78-.14-2.31.07-5.85,3.51-5.68,3,.16,2.63,3.36,2.82,5.64.7,8.39-2.44,16.14-4,24.16C192.47,155.07,191.29,157.16,193.38,158.93ZM312.44,468.62A176.16,176.16,0,0,0,282.91,483C296.77,484.25,306.5,480.25,312.44,468.62Z"/><path d="M244.09,72.1c-6.88-.41-13.5-.64-20.08-1.26a25.24,25.24,0,0,1-7.19-2.21c-1.63-.69-3.13-2.14-2.37-4.13s2.63-2,4.48-1.49c16.76,4.77,33.56,3,50.34.24,2.49-.4,4.89-1.3,7.36-1.87,1.91-.44,4.22-1,5.1,1.35,1,2.78-1.49,3.69-3.39,4.53a49,49,0,0,1-14.71,3.57C257.06,71.54,250.43,71.71,244.09,72.1Z"/><path d="M258.51,508.74c-8-1.6-15.7-5.07-21.67-11.16-5.43-5.55-10-11.95-14.82-18.1a17.12,17.12,0,0,1-2.45-5.26c-.69-2.12-2.24-5,.77-6.13S224,470,225.08,472a83.21,83.21,0,0,0,20.53,25.22,23.52,23.52,0,0,0,14,5.17c1.9.11,4.24.76,4.17,3.25C263.73,508.68,261.09,508.39,258.51,508.74Z"/><path d="M214,335.09c0-8.67.12-14.5-1.44-20.24-.62-2.28-.94-5.19,2.15-5.71,2.68-.45,3.33,2.42,3.78,4.4,2.94,12.73,2.37,25.52.18,38.29-.56,3.25-1.28,6.48-1.84,9.74-.37,2.15-.59,4.84-3.37,4.54-3-.31-3.28-3.08-2.76-5.49C212.68,351.27,214.29,341.88,214,335.09Z"/><path d="M315.85,317.89a100,100,0,0,1,2.51-23.82,28.81,28.81,0,0,1,2.49-6.54c.82-1.65,2.33-2.84,4.32-2,2.19.88,1.86,2.76,1.16,4.47-4.08,9.82-4,20.17-4.11,30.52a40.54,40.54,0,0,0,2,13.25c.63,1.92.58,4.15-1.88,4.8-2.11.56-3.19-1.22-3.89-2.85C315.9,329.61,315.64,323.19,315.85,317.89Z"/><path d="M335.72,443.67c-.41-6.72-.8-12-1-17.22-.08-1.76.13-3.87,2.25-4.24,2.58-.46,3.39,1.84,3.68,3.69,2.36,15,.84,29.52-5.36,43.43-.92,2.09-2.6,4.78-5.23,3.41s-1.23-4.16-.28-6.26A73.31,73.31,0,0,0,335.72,443.67Z"/><path d="M175.18,188.38c-16,.09-30.6-10-33.63-23-.53-2.28-1.41-5.14,1.5-6.06,2.72-.85,3.58,2,4.1,4,3.57,13.16,13.91,16.79,25.66,18.51.77.12,1.56.06,2.33.15,2.71.33,7-.83,6.82,3.25C181.77,188.68,177.57,188.14,175.18,188.38Z"/><path d="M412.81,223.65c-1.9-.24-3.83.35-4.31-1.72a3.23,3.23,0,0,1,2.62-4c12.9-3.4,16.27-13.8,18.63-25,.38-1.84.5-4.39,2.85-4.56s2.83,2.32,3.09,4.2c1.42,10.07-9.53,27.22-19.31,30.31A32,32,0,0,1,412.81,223.65Z"/><path d="M342.78,62.06c8.33,1.21,18,2.66,27,6.67,3.86,1.72,7,4.19,8.31,8.47.49,1.68.14,3.18-1.5,4a2.76,2.76,0,0,1-3.6-1.08c-6.24-8.73-16.12-9.28-25.33-11.3-2.47-.55-5-.8-7.44-1.43-1.75-.45-3.45-1.38-3-3.63C337.72,61.26,339.74,61.85,342.78,62.06Z"/><path d="M138.12,93.3a48.22,48.22,0,0,1,1.61-4.55c4.11-9,11.34-15.14,19.22-20.6a13.38,13.38,0,0,1,4.88-1.79,3.1,3.1,0,0,1,3.85,1.82c.57,1.55-.66,2.54-1.76,3.34s-2.3,1.46-3.47,2.15c-8.65,5.06-15.51,11.64-18.5,21.56-.5,1.65-.86,3.73-3.31,3.11S137.94,95.82,138.12,93.3Z"/><path d="M250.58,211.72c.27-8.45,11.24-21.31,19.51-22.69a15.65,15.65,0,0,1,5.19.21,2.57,2.57,0,0,1,2.08,2.51c.09,1.43-.86,2-2.08,2.36-10.29,2.78-16.79,9.19-19,19.75a2.63,2.63,0,0,1-3.52,2.16C250.63,215.39,250.55,213.52,250.58,211.72Z"/><path d="M437.38,119c0-.35,0-.15,0,0-.44,2.84,1.19,7.57-3.08,7.5-3.8-.07-2.1-4.66-2.41-7.31-.68-5.8-2.55-11-6.85-15.11-1.56-1.5-3.44-3.55-1.74-5.53,2.05-2.39,4.4-.43,6.05,1.14A24,24,0,0,1,437.38,119Z"/><path d="M423.36,231.38a2.56,2.56,0,0,1-2.52-1.07,2.31,2.31,0,0,1,.45-3.16c5-3.88,8.62-8.83,12-14.05a2.55,2.55,0,0,1,3.11-.94,2.85,2.85,0,0,1,1.79,2.73C438.6,219.75,428.21,231.33,423.36,231.38Z"/><path d="M278.76,424.59c4.58.13,8.83,1.34,10.06,8,1,5.5,3.73,10.61,2.47,16.54-2.38,11.15-7.67,14.45-18.46,11.15-7.33-2.24-11.76-10.17-10.48-18.78C263.9,431,269.7,424.7,278.76,424.59ZM281.82,445c-1.36-3.43-.3-9.08-4.89-9.5-3.77-.35-4.9,4.33-4.95,8-.07,4.35,2.42,7.38,6.5,7.52C281.78,451.16,280.94,447.32,281.82,445Z"/><path d="M249.53,313.2c-.55,11.58-3.42,21.76-5,32.14-.25,1.59-.82,3.85-3.07,3.66-2.44-.2-2.94-2.47-2.86-4.42.14-3.3-.06-6.86,1.13-9.81,5.48-13.51,2.37-27.32,2.06-41-.06-2.76-1.36-7,2.23-7.35s3.42,4.17,3.87,6.87C249,300.17,248.17,307.27,249.53,313.2Z"/><path d="M253.6,440.3c-.21-4.16.19-8.21,2.49-11.83,1.42-2.23,3.63-3.53,5.94-2.09,2.87,1.78.58,3.72-.72,5.26-2.7,3.19-2.56,6.81-1.87,10.54.49,2.68,1.12,5.34,1.57,8,.23,1.34.34,2.9-1.12,3.63-1.82.9-3-.45-3.85-1.73C253.58,448.54,253.42,444.44,253.6,440.3Z"/><path d="M211.83,100.36c-10.4.3-20-.42-29.47,1-5.05.79-10,1.3-14.05,4.94-1.44,1.3-3.51,2.6-5.2.83-2-2.09-.09-4,1.3-5.55,4.9-5.47,11.84-6,18.31-6.34,16.53-.89,33.1-1,49.65-1.47a11.28,11.28,0,0,1,2.33.16c1.74.34,3.74.7,3.83,2.89s-1.95,3-3.61,3.11c-5,.32-10.12.3-15.18.37C216.81,100.39,213.89,100.36,211.83,100.36Z"/><path d="M305.87,89.22c8,0,16,0,24,0A20.38,20.38,0,0,1,335,90a2.78,2.78,0,0,1,2.21,3c-.15,1.65-1.35,2.3-2.78,2.51a27.33,27.33,0,0,1-3.51.2c-18.33.36-36.69-.92-55,1-3.07.33-8.08,1.28-8.34-2.91s4.79-3.22,7.85-3.75C285.55,88.37,295.73,89.43,305.87,89.22Z"/><path d="M239.22,129.78c-.59,9.31-3.85,18.17-5.17,27.4-.26,1.85-1,4.17-3.62,3.62-2.33-.49-2.7-2.75-2.4-4.7.54-3.45,1.48-6.83,2.15-10.26,1.09-5.51,2-11.07,3.2-16.57.53-2.44,0-6.48,3.75-6.14C241.58,123.53,238.71,127.4,239.22,129.78Z"/></svg>