<svg id="Layer_1" data-name="Layer 1" xmlns="http://www.w3.org/2000/svg" viewBox="0 0 566.93 566.93"><title>Artboard 1 copy 3</title><path d="M205.56,351.49c0-7.43.07-14.87,0-22.3q-.66-55.4-1.44-110.77c-.09-6.25-1.17-12.5-1.1-18.74.06-5.39-2.28-6.65-7.17-6.61-20.68.18-41.36,0-62,.14-6.2.06-10.85-1-12.55-8-2-8.32-.85-12.47,6.12-16.43a26.54,26.54,0,0,0,6.7-6,378.51,378.51,0,0,1,65.39-59.33c4-2.86,4.94-6.6,4.65-10.89-.49-7.41,2.77-11.3,10.13-12.21,14-1.73,28.16-2.06,42.16-4.39,8.46-1.4,12.27,1.6,12.21,10.21-.1,13.9,7.75,19.16,19,24.13,24.65,10.9,49.34,21.63,74.66,30.89,8.75,3.2,16.95,7.56,25.27,11.71,12.43,6.2,24.79,12.55,39.54,10.5a6.47,6.47,0,0,1,7.62,7.19c-1.84,13,2.93,25.94-1.72,39-4.12,11.59-9.57,21-21.42,25.72-1.9.75-4.23,1.35-3.32,4.32.82,2.67-.31,6.15,3.8,7.4a70.83,70.83,0,0,1,11.57,4.7c3.72,1.92,6.23,5.11,5.63,9.58-.56,4.23-3.78,6.14-7.57,7.25-.89.26-1.76.58-2.66.81-10.41,2.6-12.3,5.8-10.38,16.66.53,3,2.27,3.46,4.71,4.06,20.6,5.07,32.36,23,29.41,44.55-.28,2-2.5,4.82,2.71,4.66,3.49-.11,2.27,3.87,1.74,6.14-.59,2.55-2.93,5,1.64,6.43,2.06.65,1.17,2.79.24,4.14-3.6,5.18-7.41,10.16-13.38,12.89-2.63,1.2-5.39,2.3-7.55-.57-1.92-2.56-4.08-1.12-6.29-1-2.76.14-7.08,4.05-7.36-3-.08-1.94-2.76-.84-4.2-.54a39.45,39.45,0,0,1-16.58-.42,23.6,23.6,0,0,1-19.18-23.23c0-3.25.77-6.15,4.51-6.8,3.58-.63,5.6,1.47,7,4.49,6.35,14,9.33,16.07,20.76,14.57,13.52-1.77,21.88-9.17,23.58-20.84,1.76-12.08-4.14-23.82-14.22-28.51a14.09,14.09,0,0,0-10.19-.47c-5.82,1.65-8.48-1.3-8.95-6.5a115.16,115.16,0,0,1-.21-15.32c.21-4.63-1.16-7.35-6.08-8.42-5.13-1.12-9.91-3.41-10.6-9.56-.75-6.6,3.6-10,8.5-13.16,2.72-1.78,7.55-1.13,7.35-6.85-.2-5.44-3.27-7.51-7.4-9.72-12.93-6.92-21-17.62-22.38-32.38-.5-5.35-2.63-6.62-7.4-6.49-22,.65-44.09,1.26-66.14,1.6-11.91.18-12-.06-10.69,11.63a377.89,377.89,0,0,1,2.55,43c-.12,24.68,3.53,49,5.89,73.49q3.28,33.9,6.7,67.8c1.37,13.62,3.87,27.08,6.25,40.55.9,5.1,3.1,7,8.31,6.83,11.61-.33,23.24,0,34.86-.18,4.77-.06,7.39,1.54,7.71,6.64,1,15.37,7.59,29.12,13,43.1,4.29,11,1.36,17.16-10.18,18.22-29.47,2.69-58.92-1.2-88.39-.09-22.73.85-45.49.91-68.24,1.35a271,271,0,0,1-41-2.44,71.33,71.33,0,0,0-19.46.31c-11.72,1.66-15.42-3-11-13.68A288.37,288.37,0,0,0,144.31,444c.89-4,3.27-5.58,7.13-6.42,9.8-2.15,19.41.05,29.1.69,2.07.14,4.13.65,6.21.75,15.38.76,18.63-2.05,18.82-17.81.27-23.23.06-46.47.06-69.71Zm83.38,100.36c-6.89,12-15.06,23-21.8,34.87-1.47,2.6-2.49,7.93-6,6.1-4.25-2.22-.84-6.52.72-9.74a47.34,47.34,0,0,1,2.59-4.13c4.51-7.31,9-14.65,13.55-21.92,2.45-3.89,2.88-6.16-3.07-6.08-15.57.21-31.14.17-46.7,0-4.09,0-6.32,1.62-8,5.21-4.69,9.85-11.06,18.83-15,29.11-.78,2.06-1.6,5.07-4.73,3.5-2.61-1.3-2-4-.88-6.15,3.7-7.24,7.61-14.37,11.27-21.63,1.46-2.9,3.39-5.8,2.15-9.89-1.09.34-1.39,1.24-1.8,2.09-5.5,11.52-13.33,21.79-18.13,33.71-1,2.53-2.47,6.26-5.62,4.71s-.9-4.92.16-7.43c.54-1.28,1.26-2.48,1.92-3.71,4.09-7.56,8.28-15.06,12.23-22.7.94-1.82,3.53-4.6.77-6s-3.52,2.27-4.27,4.23c-4.58,12-11.62,22.72-17.47,34.06-.86,1.66-1.9,3.63-4.18,2.63s-1.58-3.14-1-4.88a35.25,35.25,0,0,1,2.36-5.8c3.51-6.55,7.27-13,10.66-19.58,5.28-10.26,5.2-10.33-5.84-11.85-3-.42-6-.65-9-.88a5.34,5.34,0,0,0-5.58,3.28c-4,7.88-8,15.74-12.12,23.53-1.61,3-2,9.27-6.2,7.44-3.75-1.65-1.11-7.09.62-10.55,3.43-6.84,7.19-13.52,10.71-20.32.69-1.32,2.39-3.09.54-4.29a4.1,4.1,0,0,0-5.6,1.26,23.17,23.17,0,0,0-2.94,6.24c-2.78,8.85-5.33,17.78-8.08,26.65-3.35,10.77-3.39,10.45,7.77,10.81,16.92.56,33.83,1.48,50.73,2.47,5,.3,8-1.37,10.44-6,3.95-7.61,8.65-14.83,13.16-22.15,1.21-1.95,3-4.41,5.5-2.82s.93,4.25-.16,6.24a28.75,28.75,0,0,1-3.67,5.06c-4.06,4.62-6.36,10.22-9,15.65-.56,1.17-1.8,2.58-.08,3.56,1.33.75,2.8,0,3.69-1.18,1.25-1.66,2.31-3.47,3.41-5.24,3.44-5.51,5.34-11.9,9.54-17,1.4-1.69,2.87-5,5.17-3.53s1,4.69-.22,7c-2.9,5.29-5.94,10.5-8.83,15.8-.71,1.3-2.33,3.14-.17,4.13,1.78.81,4.23,1,5.81-.87.7-.82.7-2.18,1.19-3.22,3.21-6.69,6.37-13.4,9.76-20,1.24-2.4,3.61-4.39,6.27-2.86,3.09,1.78.29,4-.61,5.86-2.24,4.58-4.91,9-7,13.62-3.35,7.46-3.07,7.81,4.93,7.82,24.4,0,48.8-.08,73.2.09,5.27,0,9.69-.33,11.5-6.36.5-1.69,1.9-3.55,4.17-2.75s1.94,2.8,1.51,4.72c-.32,1.44-1.72,3.42.78,4a16.43,16.43,0,0,0,10.23-1.18c1.69-.69,1.45-2.19,1-3.56-2.58-7.58-5.18-15.15-7.84-22.91-3.54,1.74-3.42,4.71-4.8,6.74-2.09,3.08-3.19,9.92-6.84,8.06-4.74-2.42-.42-7.73,1.26-11.5,2.2-4.92,6.17-9.13,6.23-15.25-2.93.71-3.17,3.11-4,4.83C335.3,469,331.55,477,327.86,485c-.61,1.32-1,2.79-2.65,2.72a2.68,2.68,0,0,1-1.85-1.78c-.8-5.54-8.13-9.66-3-16.56-4.51,6.52-8.13,13-12,19.34-1.08,1.77-2,5.2-4.87,3.73s-1.68-4.5-.37-6.74q8.46-14.42,17.13-28.73c.95-1.57,2-3,4.31-3,1.31,0,2.89,6,3.91,0,.71-4.18-2.76-2.87-4.69-2.91-7.2-.16-14.4.07-21.6-.11-3.75-.09-5.76,1.36-7.43,4.81-4.24,8.77-8.91,17.34-13.64,25.86-1.64,3-3,9.13-6.82,6.76-4.57-2.8-.25-7.45,2.09-10.65C282.17,469.86,284.81,460.47,288.94,451.85Zm96.23-286.5c-2.19-1.41-2.9-2-3.71-2.38-34.66-16.36-71.29-28.08-105.69-45-4.91-2.42-5.39.73-5.37,4.57.07,14,3.24,27.6,5.36,41.33.69,4.48,3.47,4.7,7,4.74,25.31.29,50.62.1,75.87-1.69C366.89,166.28,375.24,166.65,385.17,165.35Zm-169,107.45c17.06-10.17,30.29-22.27,44.8-32.62,3.57-2.54,1.39-4.05-.88-5.63a108.8,108.8,0,0,1-17.22-15.13c-7-7.44-13.82-15-20.82-22.43-1.53-1.63-3.38-3.91-5.85-2.8-2.27,1-1.29,3.75-1.25,5.71.33,15.29.88,30.57,1.19,45.86C216.32,254.26,216.18,262.78,216.18,272.8Zm-1.12,164.89c6-4.71,10.65-8.47,15.41-12.08,12.58-9.54,25.24-19,37.79-28.55,2.43-1.85,5.46-4.31,0-6.2q-23.34-8.08-46.75-15.92c-3.55-1.18-5.3.49-5.21,4.17.18,7.42-.26,14.83.5,22.26C218,412.9,218.82,424.48,215.06,437.69ZM283.49,378c-1.69-16.19-3.53-33.42-5.24-50.65-.35-3.52-1.4-3.79-4.3-2C258.07,335,246.31,349.86,230.78,360c-2.87,1.87-3.45,4.25.92,5.73,15.77,5.33,31.79,9.95,47.14,16.47C282.09,383.61,283.74,382.64,283.49,378Zm-7.38-74.77c-1.18-16.37-2.4-32.74-3.49-49.11-.32-4.76-2.15-5.93-6.05-3q-20.65,15.31-41.27,30.68c-3.54,2.62-3.13,4.61.72,6.47,15.08,7.29,31.44,11.08,46.89,17.35C275.15,306.47,276.55,306,276.11,303.19ZM145.82,168.46h53c2.5,0,3.94-1.3,3.95-3.83,0-15.89,0-31.79,0-48.76C181.92,132,163.15,148.43,145.82,168.46Zm70.51,188.31c16.31-13.5,31.07-25.79,45.92-38,3.05-2.5,2.61-4.36-.79-5.24a193.92,193.92,0,0,1-41.57-15.45c-2.19-1.14-3.56-.52-3.56,2.17ZM233.24,439c19.74,0,37.53,0,55.32,0,3.18,0,4.09-1.25,3.52-4.24q-2.91-15.36-5.66-30.74c-.65-3.61-2.21-4.23-5.16-1.95C265.86,414,250.41,425.82,233.24,439ZM377.93,197.48c-.61,8.09,6.78,20.34,13.88,23.66,2.53,1.18,3.59.28,5.06-1.68,3.41-4.53,7.79-4.81,10.76-.08,2.87,4.56,4.62,2.18,6.73,0,5.76-6,7.65-13.59,8.72-21.48.42-3.14-1.05-4.8-4.32-4.79q-18.08,0-36.14,0C379.56,193.09,377.74,194.3,377.93,197.48Zm-163-75.72c0,14.17.17,27.55-.08,40.92-.12,6.28,3.07,6.1,6.8,3.74,8.2-5.19,16.13-10.81,24.13-16.32,2.38-1.63,3-3.57.15-5.4C235.37,138,227.36,128,214.88,121.76Zm56.61,97.05c-.88-5.83-1.95-12.7-2.92-19.57-.35-2.52-1-4.49-4.06-4.65-7.87-.42-15.73-1-23.6-1.36-1.29-.07-3-.58-3.7,1.05s.76,2.55,1.66,3.54c8.12,9,16.36,17.78,26,25.14,1.57,1.21,3.11,3.62,5.28,2.64C272.47,224.54,271,221.85,271.49,218.81Zm7.09-38.41c4.77,3.6,8.21,3.26,11.56,3.5,18.8,1.32,37.52-.8,56.25-1.62,23.63-1,47.25-1.22,70.88-1.22a25.74,25.74,0,0,0,2.78-.11c1.88-.2,3.07-1.17,2.81-3.18S421,176,419.64,176c-9.73.19-19.48.09-29.2.62-32.59,1.79-65.14,4.62-97.84,3.77C288.58,180.31,284.55,180.4,278.58,180.4Zm-55.21-68.92c13.64,6.08,20.33,21.11,35.16,26.05,0-8,0-15.29,0-22.63,0-3-1.37-5-4.38-5.23C244,108.88,233.91,109,223.37,111.48Zm-2.7-12.65c10.69-2.12,21.87-.87,32.85-2.5,1.86-.28,5.3,1.57,4.45-2.88-.56-2.93-1.6-5.24-5.45-4.66-4.32.66-8.71.88-13.06,1.36-6.64.72-13.28,1.45-19.9,2.28A3.68,3.68,0,0,0,216,96.74C216.32,99.59,218.77,98.42,220.67,98.83Zm21.89,68.09c.24.53.48,1.07.71,1.61h11.66c9.75,0,10-.52,7.91-10.31-.68-3.1-1.92-4.19-4.64-2.33C252.94,159.49,247.77,163.23,242.56,166.92Z"/><path d="M292.14,298.85c.56-5,.93-9.11,1.54-13.23.3-2,.75-4.56,3.62-4.09,2.21.36,2.73,2.52,2.37,4.43-2.82,14.88.24,29.54,1.46,44.28,1.68,20.11,5.16,40,8.57,59.82.42,2.41,2.93,6.19-.88,7.15s-4.71-3.2-5.18-6.07c-2.56-16-5.24-32-7.24-48.1C294.54,328.1,293.48,313.07,292.14,298.85Z"/><path d="M198.14,322.05a135.27,135.27,0,0,1-8.3,49.14c-2.42,6.46-3.58,13.39-5.35,20.1a22.31,22.31,0,0,1-1.56,4.56c-1,1.95-2.7,3.63-5,2.59-2.14-1-1.46-3.19-.75-4.9,2.89-6.89,3.18-14.58,5.95-21.35,8.12-19.8,9.57-40.37,8.89-61.37-.13-3.94-1.1-10.95,2.84-10.78,5.38.22,2.74,7,3.2,11C198.42,314,198.14,317.08,198.14,322.05Z"/><path d="M393.05,140.25c-22.6-4.74-45.41-10-63.84-26a21.12,21.12,0,0,1-3.88-4.83c-1.37-2.2-1.45-4.72,1-6.1,2.67-1.51,3.21,1.19,4.47,2.81,7.56,9.64,18.13,14.92,29.19,19.23a154.16,154.16,0,0,0,34.29,8.54c2.19.32,5.4.32,5.25,3.32C399.32,140.83,395.87,139.87,393.05,140.25Z"/><path d="M450.88,205.54c1-1.58,1.67-2.75,2.44-3.87.93-1.36,2-2.86,3.9-2s1.74,2.67,1.25,4.22c-1.33,4.19-2.77,8.35-4.34,12.45-.38,1-1.82,2.6-2.16,2.45-6.49-2.67-6.8,3.82-9.7,6.39-1.55,1.37-3.23,3.42-5.39,2.14-2.42-1.44-1.14-4,.05-5.47,6.44-8.17,8.06-17.47,7.17-27.52-.18-2-.32-4.82,2.28-5.17,3-.4,2.75,2.63,3.07,4.51C450.06,197.3,450.35,201,450.88,205.54Z"/><path d="M152.87,122.85c2.66.46,3,2.05,2.23,4.1a25.93,25.93,0,0,1-6.38,9.84c-7.76,7.28-15.69,14.38-23.65,21.45-2.19,1.94-5.29,3.42-7.32.58-2.42-3.4,1.79-3.86,3.48-5.31,9.82-8.46,20.06-16.48,27.65-27.2C149.93,124.82,151,123.22,152.87,122.85Z"/><path d="M124.39,475.66a27.45,27.45,0,0,1,.55,3.12c0,2.75.27,6.68-3,6.76-4,.11-3.77-4.23-3.56-7,.55-7.14,1.47-14.29,3.8-21.11q3.25-9.53,7.07-18.85c.87-2.13,1.65-5.73,5.13-3.88,2.58,1.37,1.41,4.16.25,6.18-4.48,7.75-6.37,16.37-8.35,24.93C125.38,469.6,124.1,473.4,124.39,475.66Z"/><path d="M354.48,426.64a6.57,6.57,0,0,1,5,2c1.7,1.72,2.82,4,6,1.57,1.48-1.13,3.28,1.08,4.31,2.62,1.19,1.77,2.53,4.82.85,5.64-5.79,2.83-2.35,7.07-2.45,10.8-.07,2.37,1.12,6-2.25,6.39-3.08.36-2.3-3.3-3-5.32-2.44-6.69-4.18-13.78-10.11-18.59-1.14-.92-2-2-1.19-3.57A3.19,3.19,0,0,1,354.48,426.64Z"/><path d="M426.77,323.5c-.64,5.82-1.39,12.06-6.21,16.83a10.15,10.15,0,0,1-6.73,3.29c-1.38.06-3.06.25-3.75-1.14-.94-1.91.57-2.92,2.05-3.77,6.9-4,8.91-10.29,8-17.83-.23-1.95-1.68-4.56,1.42-5.17s4.48,1.77,5,4.54A28.78,28.78,0,0,1,426.77,323.5Z"/><path d="M283.15,80.4c-.24,1.93.4,4.93-2.8,5.17-2.62.19-3.32-2.49-3.39-4.46-.24-7-4.34-10.78-10.25-13.44-2-.9-5-2.39-4-4.87,1.22-3,4.36-1.48,6.65-.74C277.46,64.67,283.21,72.3,283.15,80.4Z"/><path d="M307.64,339.12c0-3-.06-6,0-9,0-1.45.58-2.94,2.16-3.16s2.42,1.15,2.58,2.62q1.51,14.13,2.94,28.27c.12,1.19,0,2.52-1.53,2.6s-2.55-1.13-3.19-2.35C307.5,352.12,307.32,345.64,307.64,339.12Z"/><path d="M308,455.1c2.82.33,3.06,2.16,2.3,4a113.73,113.73,0,0,1-4.89,10.72c-3.25,6.12-7.84,11.49-10.24,18.11-.58,1.58-1.87,2.8-3.78,2.28a2.76,2.76,0,0,1-1.85-3.92c4.77-10.55,10.87-20.38,16.83-30.29C306.68,455.55,307.52,455.37,308,455.1Z"/><path d="M324.63,149.44c-.29,2.62-2.08,3.19-3.95,2.19-8.78-4.74-18.72-7.08-26.85-13.06a16.25,16.25,0,0,1-3.48-4.28c-.81-1.22-1-2.66.29-3.75a2.33,2.33,0,0,1,3.19.14c7.6,6.94,17.42,9.54,26.46,13.69C322.42,145.35,324.23,146.84,324.63,149.44Z"/></svg>