<svg id="Layer_1" data-name="Layer 1" xmlns="http://www.w3.org/2000/svg" viewBox="0 0 566.93 566.93"><title>Artboard 1 copy 4</title><path d="M175.81,326.83c-.37.21-.74.3-.9.53-6.74,9.48-17.22,8.84-23.13-1.4-3.71-6.44-4.54-13.69-5.62-20.81-2-13.27-3.95-26.56-5.49-39.9-1.3-11.29-.85-22.42,5.07-32.76,1.67-2.91,1-6.05-2-8.34-4.87-3.71-7.25-13.68-4.84-19.29,1.06-2.48,3.28-2.71,5.39-3a210.69,210.69,0,0,0,35.26-8.36c11.9-3.84,22.51-10,29.24-20.42s16.75-16.47,25.81-23.4a97.36,97.36,0,0,1,31-15.32c11.22-3.36,17.11-.52,23.12,9.67,4.6,7.79,4.59,7.76,12.34,2.81a138.18,138.18,0,0,0,40.52-38.93c18.94-28,47.4-39,78.29-46.13,3.74-.86,8.42-1.75,11.41,1.84,3.31,4,2.25,8.7.1,12.87-4.63,9-8.19,18.42-11.8,27.84-4.85,12.69-15.33,20.2-25.77,27.58C380,141.65,364.51,148.42,350,157c-11.4,6.73-21.72,14.66-30,25.12-2.34,2.95-2.51,5.22-.27,8.44,2.83,4.06,6.3,7.42,9.65,11,8.71,9.22,8.54,18.85-1,27.24a149.06,149.06,0,0,1-15.82,11.68A7.11,7.11,0,0,0,309.1,247c-.12,11.45,1.38,22.83,1.45,34.22.12,16.57,3.16,33.06,1,49.71-.61,4.75.1,9.72.5,14.57.83,10.1-.85,20-1.73,30-.42,4.86-2.67,9.21-7.76,10.87-4.84,1.59-7.88-1.53-10.62-4.91-.09-.11-.3-.13-1.1-.47a62.68,62.68,0,0,0-1.56,21.11c1.55,17,4.33,34,3.8,51.22-.43,13.92-5.4,25.88-13.86,36.56-4.48,5.66-11.27,6.26-17.54,1.69-10.73-7.83-17.31-17.89-17.88-31.71-.43-10.38-2-20.71-3-31.07-.32-3.24-.9-4.83-4.84-2.78-7.55,3.94-13.11.91-14.82-7.48-.95-4.67-.21-9.4-.24-14.1,0-7.24-.25-14.46-2-21.52-.51-2-.7-5-3.28-5.07-2.21-.09-2.61,2.72-3.44,4.5-2.84,6.07-2.81,12.74-3.94,19.17a150.36,150.36,0,0,0-2.11,30.11,22.94,22.94,0,0,1-3,12.58c-1.93,3.24-4.65,5.48-8.54,5.35-4-.14-7-2.38-8.65-6-2.86-6.14-4.06-12.79-5.62-19.33-.77-3.26-1.45-6.55-2.19-9.91-2.28,6.37.06,12.21,2,18,1.51,4.45,3.6,8.7,5.43,13,.61,1.43,1.32,3-.42,4a2.64,2.64,0,0,1-3.89-1.22c-4.12-11.94-11.25-23.19-8.7-36.7.19-1,.42-2.48,1.06-2.76,5.77-2.53,3.1-7.18,2.87-11.11-.83-13.81,1.06-27.55.84-41.34-.12-7.57,0-15.14-.07-22.71C177.19,331.22,177.25,328.88,175.81,326.83Zm87.32-3.34c-1.1,1-2.12,2.56-3.82,1.29s-1.26-3.29-.77-5.1c3.7-13.8,7.46-27.58,11-41.41.67-2.58,1.76-5.24,1.14-8.35-2.73,1.69-3.5,3.95-4.14,6.47q-7.75,30.54-15.7,61c-.58,2.23-1.18,5.37-4.23,4.48-2.64-.78-1.64-3.58-1.06-5.71q5-18.75,10-37.5c1.44-5.34,2.91-10.68,4.36-16-2.22,2.09-5.36,3.41-4.89,6.81s-.49,6.34-1.5,9.37c-5.41,16.28-9.42,32.95-13.74,49.54-.5,1.93-.83,3.92-1.44,5.83a2.42,2.42,0,0,1-2.79,1.68c-1.46-.21-1.82-1.42-1.77-2.64a19,19,0,0,1,.54-4c2.33-9.12,4.66-18.24,7.1-27.33,2.37-8.85,4.88-17.67,7.66-27.7-5.21,3.35-9.1,6.24-9.91,11.48-2.91,18.81-10.16,36.59-13.09,55.39-.3,1.93-.7,4.6-3.39,4.07s-2.17-3.13-1.77-5.07c1.26-6.08,2.59-12.16,4.09-18.19,2.55-10.27,6.1-20.29,8-30.73.27-1.48,1.11-3.12-1.19-3.61-1.86-.4-3.34.13-3.78,2.28-.17.82-.52,1.6-.67,2.42-2,10.46-8.73,19.33-10.17,30a2.51,2.51,0,0,1-2.76,2.41c-1.7-.21-1.77-1.74-1.93-3.1-.36-3.17.91-5.93,2.18-8.69a86,86,0,0,0,7.4-25,67.21,67.21,0,0,0-4.84,10.5c-2.74,7.74-6.36,15.21-7.48,23.49-.22,1.62-.83,3.63-3,3.3s-2.16-2.29-2.14-4a5.73,5.73,0,0,1,.3-2c4.16-10.61,5.46-22.25,11.64-32.14a21.27,21.27,0,0,0,2.69-5.95c.68-2.68-1.16-4.45-3.27-5.66-1.69-1-2.39.3-2.83,1.74-4.63,15.27-11.11,30-14.1,45.74-.29,1.52-.41,3.33-2.39,3.23s-2.57-2.06-2.57-3.74a17.83,17.83,0,0,1,.84-4.94c2-6.78,4-13.55,6.08-20.28,1.81-5.77,3.8-11.49,5.66-17.25.38-1.16,1.52-2.89-.6-3.24-1.73-.28-1.81,1.54-2,2.89a28.67,28.67,0,0,1-.8,4.44c-.58,2-1.58,4.32-3.94,3.82-2.8-.61-1.71-3.14-1.31-5s1-3.57,1.28-5.39c.36-2.28,0-4.31-3.06-5.21-.13,4.82-1.57,9.09-3.08,13.33-1,2.81-1,8-4.8,6.83-4.25-1.36-1.11-5.85-.28-8.8,1.39-5,3.12-9.87,3.12-15.14-1.45,3.24-2.3,6.66-3.52,9.93-1,2.6-1.07,7.47-4.91,6.09-3.36-1.21-1.11-5.28-.19-8,1.31-4,3.29-7.79,3-12.16-1.44,3.37-2.47,6.86-3.68,10.28-.63,1.77-1.7,3.83-3.89,3.07s-1.81-3-1.2-4.81c1-3.19,2.34-6.33,3.1-9.58.48-2,1.15-4.56-1.79-6.38-.92,4.23-1.67,8-2.6,11.74-.41,1.61-1.07,3.55-3.26,3.09-2-.44-2.19-2.36-2-4.09a31.69,31.69,0,0,1,.82-3.94c1-4.58,2.15-9.15,3.12-13.74.21-1,.88-2.51-.88-2.95s-1.95,1.15-2.27,2.14c-2.22,7-5.81,13.64-6.37,21.17-.12,1.58-.5,3.22-2.54,3.06s-2-1.92-2.12-3.44a24,24,0,0,1,2.77-13.18c4.34-8.51,5.37-15.6-4.21-21.71-4.35-2.77-3-7,2-9A54.59,54.59,0,0,0,175.71,237c-6.8,1.54-13.65.41-20.41,1.06-2.68.26-4.73,1.57-4.91,4.76-.12,2.17-.69,4.31-.85,6.48-1.2,16.59,1.43,32.86,4.54,49.05,1.36,7.07,1.45,14.4,4.14,21.21,1.19,3.05,3.3,5.36,6.55,5.58,3.07.21,3.2-3,4.13-5,1.58-3.33,3.72-5.69,7.64-5.46s6,2.61,7.46,5.92a27.83,27.83,0,0,1,1.92,11.86c-.32,21-.72,42-.95,63.05-.08,7.24,1.61,14.34,2.28,21.5.4,4.26,4.58,2.41,5.66,5.06,1.42,3.51-4.61,3.72-2.89,7.39,1.13,2.41,1.47,5.16,2.32,7.71.36,1.06.85,2.39,2.25,2.43,1.73,0,2.18-1.55,2.5-2.75a33.43,33.43,0,0,0,1.33-10c-.36-8.05-.6-16.08,1-24.06,1.92-9.36,2.29-19.06,6.55-27.87,1.83-3.79,4.55-6.26,8.91-6.34a10.46,10.46,0,0,1,10.16,6.21,33.26,33.26,0,0,1,2.28,6.65c2.54,10.24,2,20.7,2,31.11,0,2-.27,4.58,1.64,5.53,2.34,1.17,3.32-1.55,4.69-2.86,4.22-4,8.93-3.16,11.26,2.26a31,31,0,0,1,1.71,5.78c2.56,11.87,2.86,24,3.77,36,.75,9.94,4.63,17.66,12.26,23.84,3.51,2.84,6.1,3,9.37-.68,7-7.81,9.75-16.95,10.29-27.2,1.07-20.41-2.64-40.53-3.55-60.82-.19-4.24,1-8.48-.33-12.74a66,66,0,0,0-2.8,20.07c0,4.54.54,9.1-.3,13.59-.28,1.53-.44,3.77-2.79,3.48-2.08-.26-2.33-2.22-2.34-3.93-.05-9.92-.56-19.86,1.19-29.7.75-4.21,2.05-8.26,5.58-11,3.12-2.42,7-3.4,10.43-5.49,2-1.26,4.6.05,6.07,2.27.84,1.26,1.49,2.64,2.3,3.91.6,1,1.14,2.32,2.61,1.83,1.12-.37,1.07-1.61,1.15-2.6q.63-7,1.19-14.06c1.93-23.87.48-47.71-.74-71.55-.66-12.74-.64-25.48-.76-38.23,0-1.1.79-2.57-.58-3.15-1.16-.49-2.1.77-3.11,1.31-1.54.83-1.73,2.37-2,3.85q-3.62,16.5-7.22,33c-.39,1.81-.55,3.67-1,5.44-.45,1.59-1,3.54-3.22,3.16-2-.33-1.78-2.24-1.73-3.7a33.45,33.45,0,0,1,.61-6c2.11-9.51,4.38-19,6.48-28.49.23-1.06,1.44-3-.64-3.25-1.63-.2-1.69,1.71-1.83,3.06-1.41,14.08-6.32,27.51-7.82,41.58-.22,2.07-.36,5.22-3.24,4.7s-2.23-3.52-1.93-5.89c1-8,3.24-15.8,4.76-23.72,1.14-6,3.38-11.82,2.22-18.73-2.41,2-2.68,4.28-2.8,6.28-.65,10.5-3.69,20.47-6.16,30.59-2.67,10.92-7.07,21.41-8.37,32.68A5.17,5.17,0,0,1,263.13,323.49Zm-1.36-102.31a24.38,24.38,0,0,0,.93-3.23q3.26-24.7,6.44-49.42c.75-5.82,1.37-11.65,2.17-17.47.21-1.51.93-3.19,2.73-3.11s2.19,1.92,2.34,3.4a16.85,16.85,0,0,1-.24,4c-.76,5.31-1.66,10.61-2.37,15.93-2.38,17.95-4.68,35.9-7.1,53.85a3.73,3.73,0,0,0,.63,3.24c3.92,4.83,7.6,9.85,12.05,14.24,2.26,2.23,4.74,2.69,7.33,1.37,11.8-6,24.1-11.29,34.38-19.85,7.29-6.08,7.35-11,1-18-15.94-17.49-28.77-37.17-40.57-57.56-3.89-6.73-7.94-8.81-15-5.55-14.28,6.59-29,12.38-40.25,24.35-3.61,3.85-3.75,6.24-.7,10,8.85,11,17.52,22.11,26.28,33.16.47.58.92,1.48,2,1,1.07-4.44,1-4.42-2.15-7.43a5,5,0,0,1-1.48-4.16c.33-3.16.86-6.31,1.44-9.44.17-.94.69-2.59,1.54-2.35,4.7,1.35,3.51-2.41,4.27-4.56.55-1.57,1.22-3.63,3.26-3.24,2.37.45,2.29,2.86,1.89,4.56-2.27,9.54-1.81,19.38-3.34,29A7,7,0,0,0,261.77,221.18Zm-81.84,42.45c6.59,1.21,8.76.55,13.1-2.12A138.58,138.58,0,0,0,212.9,246.9c2.11-1.89,4.65-3.71,7.63-1.28,1.13.92,1.67.32,2.44-.53,7.49-8.18,15.08-16.25,20.85-25.84,1.3-2.16,1.11-3.49-.32-5.31-3.44-4.36-6.64-8.9-10.05-13.28-5.38-6.9-5.35-6.8-11.41-.95-3.5,3.39-7.09,6.84-12.51,6.72a4.42,4.42,0,0,1-4.51-3.34c-.65-2.2.75-3.49,2.37-4.51a9.75,9.75,0,0,1,3.18-1.5c5.08-1,7.47-5.06,9.67-9s-1.6-6.3-3.87-8.17-3.25,1.28-4.24,2.82c-3.43,5.29-8.53,8.49-13.89,11.39A142,142,0,0,1,151,209.48c-1.78.27-4.1.15-4.05,2.73s1.56,3.86,4.26,3.92c12.21.27,24.21-.37,35.26-6.49a31,31,0,0,1,6.54-2.56,3.26,3.26,0,0,1,3.86,1.7,3.49,3.49,0,0,1-.21,4.24,12.56,12.56,0,0,1-3.79,3.24c-9.63,4.52-19.52,8.2-30.37,8.38-1.68,0-3.37,0-5,.14a2.27,2.27,0,0,0-2.33,2.2c0,1.16.88,1.7,1.84,2.13a14.47,14.47,0,0,0,7.94.75,97.51,97.51,0,0,0,40.37-14.81,17.24,17.24,0,0,1,3.1-1.68c2.33-.86,4.35-.35,5.65,1.88s.79,4.23-1.28,5.74c-1.76,1.28-3.69,2.35-5.4,3.7-11.31,8.95-22.1,18.63-35.24,25-1.36.67-4.46.81-3.05,3.4,1.11,2,3,4.32,6.1,3.31a12.57,12.57,0,0,0,3.22-1.42c12.84-8.61,25.77-17.13,35.73-29.27,2-2.47,4-5,6.81-6.66a4.06,4.06,0,0,1,5.13.4c1.58,1.41,1.11,3.09.22,4.6a46.32,46.32,0,0,1-3.67,5.41,125,125,0,0,1-21.95,20.74C194.37,255,187.61,259,179.93,263.63ZM356.44,142.77a5.56,5.56,0,0,0,4.55-4.24q2-6,4-11.94c.65-2,1.36-4.33,4-3.49s1.72,3.27,1.16,5.18c-.78,2.7-1.71,5.36-2.68,8.37,4.83-.8,3.07-4.86,4.34-7.19,1.11-2.05,2-5.08,4.75-4.36,3.11.82,1.11,3.57.86,5.56,0,.19.35.42.55.65,9.62-3.94,17-9.8,19.3-20.74,1.36-6.39,3.6-12.59,5.56-18.85.6-1.91,1.49-4.28,4-3.68,2.91.71,1.72,3.21,1.23,5-1,3.73-2.29,7.38-3.28,11.11-.78,2.88-2.43,5.59-2.26,9.56,3.06-3.11,5.69-5.46,7.17-8.73,4.52-9.94,8.13-20.28,13.31-29.94,1.9-3.54.64-4.78-3.36-4.29-12,1.5-22.64,7.32-34,11-11.51,3.77-20.32,10.86-27.74,20.12-6.61,8.25-13.12,16.6-20.1,24.53a165.47,165.47,0,0,1-35,29.53c-4.09,2.64-4.18,4.78-1.52,8.23,2.87,3.73,5.6,7.58,8.21,11.49,1.43,2.15,2.43,2.24,4.09.2,7.41-9.09,16.69-16,26.26-22.67,2.68-1.86,7.21-2.75,4.29-7.84-.35-.6.32-1.94.75-2.83a75.24,75.24,0,0,0,3.81-10.4c1.38-4.45,3-4.77,6.62-1.54.84-2.07,1.8-4,2.45-6.1s.23-5.14,3.41-4.37c2.93.72,2.57,3.59,1.81,5.93s-1.82,4.69-2.76,7C359,136.2,357,139,356.44,142.77ZM254.71,227.52a4.55,4.55,0,0,0-2.38-3.19c-1.22-.61-2,.26-2.37,1.18-5.18,11.94-16.89,18.62-23.65,29.32-1.94,3.07-5,5.54-8.72,1.95-1.83-1.74-2.66-.07-3.72.81a102.65,102.65,0,0,1-15.78,10.84c-9,5-9,5-1.65,12.25,8.15,8.1,11.47,8.64,21.81,3.28a96,96,0,0,0,31.2-25.14c2.14-2.68,4.72-7.87,9.09-3.77,3.89,3.65-.06,7.17-2.55,9.89-8.33,9.08-17.48,17.27-28.13,23.58-3.09,1.82-3.54,3.32-1.29,6.16,3.45,4.35,4.13,4.55,8.13.78,1.22-1.15,2.45-2.31,3.65-3.48,10.85-10.57,21.08-21.75,29.63-34.23,5.72-8.37,5.15-8.77-1.09-16.39-1-1.17-2-2.29-2.87-3.52-2.23-3.09-3.93-3.35-6.32.17-4.26,6.24-8.79,12.34-13.63,18.14-6.27,7.5-13.12,14.49-21.88,19.17-2.61,1.39-5.89,3.41-7.89-.45-1.84-3.55.94-5.57,3.83-7a41.25,41.25,0,0,0,9.43-6.69c10.22-9.2,17.72-20.65,25.91-31.51A18.47,18.47,0,0,0,254.71,227.52Z"/><path d="M437.39,92.79c-.34,1-.79,2.41-1.34,3.81-6.25,16-17,28.85-28.57,41.17a12.18,12.18,0,0,1-7,3.76,3,3,0,0,1-3.43-1.54c-.73-1.58.47-2.46,1.63-3.22,14.33-9.44,23.46-23.11,30.84-38.16,1.18-2.4,1.9-5,2.95-7.5.59-1.39,1.34-3,3.3-2.26C437.33,89.4,437.26,90.92,437.39,92.79Z"/><path d="M168.31,189.17c-4,0-6.67.2-9.32-.07-2.12-.21-4.12-1.35-3.63-3.89.58-3,2.77-2.38,4.72-1.42a12.48,12.48,0,0,0,7.41.73c4-.56,7.43,1.45,11.18,1.91a2,2,0,0,1,1.8,2.07,3.58,3.58,0,0,1-2.69,3.32c-6.13,2.22-12.21,5-18.94,4.45A96.7,96.7,0,0,1,140,193.16c-1.95-.56-5.08-.93-4.3-3.81.72-2.66,3.76-1.9,5.72-1.44,6.71,1.6,13.36,3.33,20.34,2.79C163.6,190.56,165.47,190.87,168.31,189.17Z"/><path d="M162.54,409.12c.91-1.82-.75-6.25,2.43-6.34,4.05-.11,2.56,4.23,2.78,6.82,1.22,14.47,4,28.52,10.66,41.59a15.81,15.81,0,0,1,.85,1.82c.62,1.77,1.42,4-.46,5-2.38,1.26-3.65-1.07-4.49-2.85-5.92-12.55-9.06-25.92-11.21-39.55C162.79,413.66,162.75,411.64,162.54,409.12Z"/><path d="M286.24,504.22a33,33,0,0,1-15.43,4.11c-1.88,0-4.14-.06-4.51-2.28-.43-2.57,2.21-3,3.79-3,14.58-.16,22.27-9.25,27.94-21.1.81-1.68,1.77-3.78,4-2.85s1.21,3.28.71,4.9a25.19,25.19,0,0,1-6.38,10.16c-3.19,3.23-6.4,6.44-9.6,9.67C286.61,504,286.43,504.09,286.24,504.22Z"/><path d="M348.48,213.07c.07,11.8-6.11,20.23-14.83,27.21-1.42,1.13-3.4,2.27-4.85.19-1.2-1.74.19-3.26,1.52-4.28,9.36-7.17,13.85-16.52,13-28.34-.08-1.24.23-2.45,1.7-2.66s2,.89,2.59,2C348.29,208.39,348.5,209.82,348.48,213.07Z"/><path d="M338.56,100.22c-2.67-1.21-2.37-3.39-.95-5.24,3.18-4.12,6.49-8.16,10.05-12,4.14-4.42,8.53-8.61,13.82-11.68,1.76-1,4.06-2.17,5.49-.19,1.64,2.27-.71,3.79-2.32,4.75-9.15,5.44-16.29,12.9-22.33,21.55A6,6,0,0,1,338.56,100.22Z"/><path d="M297.49,412.07A33.18,33.18,0,0,1,299,400.61c.46-1.4.94-3.17,2.95-2.76s2.4,2.34,2,4c-1.27,5-.83,10-.85,15A44.17,44.17,0,0,0,306.22,434c.86,2.1,1.54,4.78-1,5.68-2.94,1-3.24-1.92-3.84-3.95C298.93,427.48,298.07,419,297.49,412.07Z"/><path d="M135.72,305.59c.11-1.74.11-2.75.26-3.74.18-1.24.76-2.29,2.16-2.37s2.09.88,2.32,2.14c.65,3.45,1.23,6.9,1.89,10.35,1.45,7.57,3.22,15,7.25,21.77,1,1.65,2.39,4,.09,5.3-2.1,1.18-3.63-1-4.83-2.57a23.67,23.67,0,0,1-3.9-9.18C139.29,319.8,136.61,312.54,135.72,305.59Z"/><path d="M321.25,347c0,4.7,0,9.4,0,14.1a16,16,0,0,1-.35,4.5c-.69,2.23-.63,6-3.95,5.33s-1.95-4-1.44-6.38c2.22-10.47.43-21.08,1.12-31.6.17-2.54-1.61-7,2.18-7.09s2.28,4.45,2.4,7.05C321.4,337.56,321.25,342.26,321.25,347Z"/><path d="M438.13,111.12c-.39.86-.86,2.11-1.5,3.26-4.74,8.59-12.14,15.11-17.84,23a2.63,2.63,0,0,1-3.55,1c-1.78-1-1.24-2.76-.43-4,1.77-2.62,3.85-5,5.8-7.54q6.31-8.13,12.6-16.27c.83-1.06,1.55-2.31,3.16-2C437.45,108.78,438.1,109.53,438.13,111.12Z"/><path d="M222.39,143.65c1.54,0,3,.14,3.56,1.61a2.37,2.37,0,0,1-1.58,3.24c-7.8,2.6-12.33,9-17.4,14.75-1.24,1.42-2.4,4.08-4.72,2.47s-.76-4,.55-5.69c4.06-5.12,8.21-10.2,13.78-13.83A14.54,14.54,0,0,1,222.39,143.65Z"/><path d="M327.66,190.91c.19-6,2.48-11.36,5.9-16.21,1.36-1.93,3.47-3.17,5.56-1.46s-.09,3.16-1.1,4.56a29.34,29.34,0,0,0-5.64,14.78c-.17,1.84.71,4.77-2.09,4.84-3.07.08-2.41-2.95-2.62-5A15,15,0,0,1,327.66,190.91Z"/><path d="M157.06,425.92c.14-1.58-.33-4,2.17-4.23,2.74-.29,2.25,2.31,2.68,4,1.26,4.86,1.79,9.93,4.48,14.37.79,1.29,1.34,3.06-.3,4.06-1.87,1.15-3.11-.43-4.2-1.7C160,440.13,157.05,430.23,157.06,425.92Z"/><path d="M201.42,155.75c-1.57-.19-2-1-2.07-2.43-.07-4.91,10-13.59,15.07-12.9,1.07.14,2.12.51,2.29,1.59a2.58,2.58,0,0,1-.77,2.2c-5.06,3-10,6-13.25,11.14C202.49,155.66,201.78,155.65,201.42,155.75Z"/><path d="M352.32,70.4a9.77,9.77,0,0,1-1,2c-3.83,4.82-9.38,7.53-14,11.34a2,2,0,0,1-2.75-.26,2.63,2.63,0,0,1-.37-2.83,7.65,7.65,0,0,1,2.94-3.36c3.61-2.72,7.19-5.49,10.8-8.23.93-.7,1.88-1.47,3.19-.91A2.1,2.1,0,0,1,352.32,70.4Z"/><path d="M286.78,503.82c4.11-1.58,6.38-5.33,9.53-8,1.47-1.25,2.93-3.67,5-1.7s.13,4.07-1.33,5.57c-2.81,2.89-5.73,5.69-8.8,8.28a4,4,0,0,1-5.17.19c-1.68-1.3-.72-2.65.22-3.92A6.55,6.55,0,0,0,286.78,503.82Z"/><path d="M263.55,323c4.25-4.28,9.33-3,14.21-1.83,2.84.67,3.56,3.57,3.84,6,.88,7.82,1.83,15.67,2.06,23.52.24,8.31-5.66,14.25-13,14.37-4.46.07-7.18-2.24-8.17-6.08-3-11.84-4.28-23.75.65-35.49A5.17,5.17,0,0,0,263.55,323Zm5.15,18.89c-.38,2.91.45,6.51,1.08,10.12.25,1.44.22,3.48,2,3.56s3.05-1.95,3-3.48c-.21-7-.73-13.93-1.25-20.89-.06-.9-.5-2.09-1.78-2s-1.55,1.12-1.92,2.05C268.58,334.37,268.64,337.72,268.7,341.87Z"/><path d="M192,385.39c.15,8.36-.55,16.76,1.48,25,.52,2.08.57,4.95-2.06,5.49-3.1.64-3.33-2.53-3.44-4.46-.67-10.85-2.27-21.72-1.14-32.59.69-6.67-.25-13.43,1.39-20,.5-2-.11-5.21,2.88-4.8,2.76.37,3,3.56,2.44,5.83C191.45,368.3,192.15,376.86,192,385.39Z"/><path d="M274.35,453.92c0-2.18-.1-4.36,0-6.53a2.53,2.53,0,0,1,2.08-2.52c1.52-.27,1.89.91,2.34,2.05,2.85,7.19.2,20.05-5.31,25.5-3.21,3.17-7.78,3.38-10.25.49a2.85,2.85,0,0,1-.7-3.22,2.18,2.18,0,0,1,2.05-1.16c6.72-.71,9.17-3.28,9.57-10.09.08-1.5,0-3,0-4.52Z"/><path d="M237.44,393.87c-.14,4.46-.23,7.79,1.12,11,.54,1.29.67,2.81-.7,3.62-1.71,1-2.88-.38-3.75-1.56-2-2.68-2.31-5.88-2.22-9.09.14-5.37.29-10.68-1.85-15.82-.74-1.76-1.43-4.25,1.33-5.06s2.66,1.81,3.39,3.37C236.91,385,238,389.83,237.44,393.87Z"/><path d="M297,192.56c-1.06,10.58-2.08,21.07-3.17,31.55-.18,1.69-.64,3.72-2.81,3.43-2.56-.33-2.83-2.68-2.62-4.72.71-7,1.57-14,2.39-20.93.39-3.32.69-6.67,1.31-9.95.36-1.91-.29-5.23,3-4.79C298.05,187.57,296.55,190.68,297,192.56Z"/><path d="M282,171.65a137.12,137.12,0,0,0-2.29,24.81,7,7,0,0,1-.59,2.43c-.72,1.82-1.18,4.54-3.66,4-2.82-.58-1.46-3.25-1.31-5.09.66-8,1.39-16,2.11-24a11.65,11.65,0,0,1,.44-3c.66-1.74.2-4.77,2.9-4.6C282.72,166.44,281.52,169.49,282,171.65Z"/><path d="M296.45,215.36a66,66,0,0,1,1.29-17c.31-1.66.62-4.11,3.21-3.65,2.08.38,2.23,2.51,2,4.11A144.25,144.25,0,0,0,301,226.34c0,1.37-.45,2.82-2.16,2.85s-2.29-1.36-2.32-2.76C296.39,222.74,296.45,219.05,296.45,215.36Z"/><path d="M376,115.69c-3,.07-5.37-.65-6.84-3.43a6.94,6.94,0,0,1,.81-8,39.19,39.19,0,0,1,16.93-12.17A5.92,5.92,0,0,1,394.16,94a8.75,8.75,0,0,1,.38,10.42A24.35,24.35,0,0,1,376,115.69Z"/><path d="M386,87.13a4.16,4.16,0,0,1-3.14,3.71c-8.79,3.14-15.1,9-19.9,16.92-2.58,4.27-7,7.2-9.32,11.8-.79,1.55-2.43,2.63-4.24,1.59-2.1-1.2-.82-3-.2-4.44,1.34-3.11,3.58-5.65,5.79-8.19s4.78-4.86,6.45-7.71c4.67-8,12.38-11.56,20.28-15C383.54,85,385.35,84.51,386,87.13Z"/><path d="M338.48,134.71a4.36,4.36,0,0,1-1.54,3.06,306.32,306.32,0,0,1-27.83,24.08c-1.55,1.18-3.77,2.66-5.32.51-1.39-1.91.72-3.44,2-4.58,6.52-5.54,13.19-10.92,19.72-16.46,2.95-2.5,5.69-5.24,8.54-7.85a2.78,2.78,0,0,1,3.2-.8A2,2,0,0,1,338.48,134.71Z"/></svg>