<svg id="Layer_1" data-name="Layer 1" xmlns="http://www.w3.org/2000/svg" viewBox="0 0 566.93 566.93"><title>Artboard 1 copy 5</title><path d="M292.55,320.6c2.27,7.19,5.44,12,10.64,15.3,1.69,1.08,4,2.35,2.75,4.68-1.43,2.74-4,1.19-5.83.3-7.64-3.67-11.32-10.17-12.55-18.28-.11-.71-.24-1.7.13-2.15,5.15-6.18.28-12.48.28-18.7,0-3-1.9-3.95-4.76-4-21.36-.37-42.43-3.76-63.57-6.37-23.06-2.85-31.92-16.28-24.5-38.38q19.92-59.37,41-118.36c4-11.23,9.58-21.9,14.47-32.8,8.36-18.64,37.72-21.19,50.29-4.66,11.13,14.64,18.59,31.21,25,48.35,6.54,17.38,13.13,34.74,22.88,50.73a135.94,135.94,0,0,1,13.84,31.8c2.42,8.06,7.52,15.23,8,23.94.34,5.84,1.75,11.55,1,17.53-1,7.92-5.41,12.61-12.58,15.21C350,288,340.44,289,331,290.1c-10.41,1.27-20.38,4.87-30.88,5.66-2,.16-2.89,1.32-2.81,3.3.54,13.14,7.06,26.09,19.91,31.18,3.88,1.53,7.94,1.37,12,1.39,17.49.08,26,6.17,31.16,23a131,131,0,0,1,4.11,18.26c.52,3.38,1.92,5.37,4.92,6.59,10.29,4.18,15.55,11.5,17,22.89,3.13,24.08,6.63,48.06,5.92,72.45-.27,9.42-3.16,13.24-12.38,15.43-14.85,3.52-25.37-2.44-29.67-17.12-3.43-11.73-4.34-23.9-4.81-36a161.3,161.3,0,0,0-4-31.09,38.27,38.27,0,0,1-.52-13.73c.78-6.23,4.06-11.07,10.23-13.24,3.18-1.11,4.3-2.73,3.6-6.16-1.25-6.11-1.68-12.38-3.94-18.29-3.64-9.51-9-13.33-19.14-13.59-8.62-.22-17.33.12-24.81-5.51C301.64,331.6,297.85,326.39,292.55,320.6Zm-4.61-129.06c.49,5.28,1,10.58,1.47,15.89,2.16,23.78,2,47.74,5.62,71.42,1.1,7.26,2.24,8.43,9.61,7,12.42-2.48,24.63-6,37.42-6.63A39.39,39.39,0,0,0,357.41,275c3.22-1.58,5.67-4,5.27-7.68-.91-8.38-1.07-16.91-4.19-24.91-7.1-18.16-14.48-36.14-24.16-53.18-9.85-17.33-15.62-36.51-23.16-54.89-4.53-11-9.05-22.19-17.43-31.14-11.41-12.2-29-9.9-36,5.13-5.66,12.17-11.19,24.46-15.73,37.08-9.65,26.82-18.55,53.92-27.9,80.86-4.1,11.81-8.82,23.44-11.5,35.69-2,9.13,1.38,14.85,10.09,18.16a53.7,53.7,0,0,0,6.35,1.86c8.26,2,16.78,1.72,25.16,2.8,11.79,1.52,23.42,4.53,35.57,3.08,5-.6,6.28-2.37,5.81-6.91-1.26-12.05-3-24.11-3.32-36.2-.44-18.78-2.26-37.42-3.85-56.1a25.25,25.25,0,0,1,.47-7.08c.51-2.56,1.82-4.59,4.75-4.43s4,2.54,4.2,5C288.14,185.23,287.94,188.37,287.94,191.54Zm62.67,213.33a52.1,52.1,0,0,1,.39-6.45c.34-1.84.18-4.63,2.93-4.54s2.68,2.69,2.8,4.66c.25,4-.22,8.17.5,12.11,2.68,14.45,6,28.8,5.2,43.65-.18,3.24,3.37,8.11-3.66,8.58-1,.07-.65,1.56-.45,2.43.48,2,1,3.93,1.55,5.86,2.2,7.15,5.8,10.54,11.71,10.56,6.8,0,6.5-7.38,10.8-10.09a4.23,4.23,0,0,0-2.74.78c-1.8,1.05-3.78,3.49-5.7,1-2.07-2.65.84-4.19,2.44-5.79a23.64,23.64,0,0,1,2.61-2c2.51-1.91,4.59-4,3.9-8.26-2.88,2.28-5.24,4.26-7.73,6.06-1.3.94-2.92,2.1-4.4.38s-.38-3.46,1-4.77c1.2-1.13,2.57-2.08,3.87-3.1,2.18-1.71,4.41-3.38,5.84-5.8.73-1.23,1.95-2.9.65-4-1.66-1.42-2.45.82-3.37,1.7-2.39,2.3-4.61,4.78-7.75,6.1-1,.44-2.13.77-3.06-.22a2.35,2.35,0,0,1,0-3.48c2.19-2.21,4.59-4.23,6.83-6.4,2.5-2.42,5.44-4.62,5.54-9.72-3.51,3.33-6.24,6-9.07,8.57-1.1,1-2.46,1.9-3.91.58s-.78-2.72,0-4c1.95-3.44,5-5.82,8-8.32,1.5-1.27,3.4-2.29,4.13-5.5-2.8,2.39-4.66,4.17-6.71,5.67-1.36,1-3.07,1.64-4.42-.08-1.16-1.48-.26-2.84.74-3.94,1.37-1.5,2.95-2.79,4.32-4.27,2-2.17,4.79-3.95,4.93-8.52-2.8,2.61-4.81,4.64-7,6.46-1.32,1.11-3.12,1.81-4.43.19s-.44-3.22.91-4.39c3.08-2.66,6.26-5.26,7.9-9.08.9-2.1,2.54-4.52,0-6.84-2.77,2.93-5.22,5.65-7.82,8.21-1,1-2.31,2.21-3.84.93-1.36-1.15-1-2.74-.21-4a42.23,42.23,0,0,1,3.57-4.87c1.3-1.54,2.83-2.89,4.15-4.42,1.14-1.32,2.11-3.12.23-4.27s-2.21,1.12-2.92,2.23c-1.76,2.8-3.51,5.6-5.22,8.43-1.17,1.95-2.51,4.35-5,2.67s-.62-4,.42-5.83c1.54-2.71,3.34-5.29,4.91-8,.83-1.43,1.71-3-.71-4-4.59-2-11.08.6-13,5.29C348.64,396.81,348.89,400.66,350.61,404.87Z"/><path d="M365.05,191.29c-4.77-1-8.05-3.7-11.06-6.69-10.28-10.22-15.81-23.32-21.75-36.14a91.57,91.57,0,0,1-6.6-19.82c-.41-1.95-1.86-4.92.8-5.86,3.1-1.09,3.85,2.19,4.55,4.31,3.31,9.94,6.47,19.91,11,29.39,5.59,11.75,12,22.78,24,29.37,1.47.81,2.9,2.1,2.39,3.94S366.12,191.42,365.05,191.29Z"/><path d="M181.58,262.3c.18-4.2-.45-8.47.95-12.59.69-2,.85-5.13,3.61-4.67,3,.49,2.84,3.43,2.18,5.87-1.7,6.32-1.62,12.6-.75,19.1,1.7,12.65,5.33,24.36,13.75,34.24,1.18,1.39,2.71,3.09,1.06,4.84-1.84,2-3.8.56-5.31-.83-3.73-3.42-6.07-7.85-8.14-12.35C184,285.26,181,274.17,181.58,262.3Z"/><path d="M280.83,74c-2.59-2.36-5.37-2.11-7.66-3.12-1.23-.54-2.33-1.26-2-2.87s1.49-1.82,2.89-1.93c6.7-.53,11.55,3.15,14.78,9.31,2,3.74,5.83,6.46,8.75,9.72,1.26,1.42,3.68,3,2,5s-4.08.44-5.92-.68a8.44,8.44,0,0,1-2.79-2.62c-4.69-7.63-11.56-8.11-19.26-6.07-3.37.89-6.73,1.85-10.14,2.56-2,.42-4.49.23-5.09-2.07-.66-2.54,1.68-3.37,3.7-3.82C266.65,76,273.23,74.24,280.83,74Z"/><path d="M233.13,115.87c-.9,3.29-2.07,7.71-3.29,12.12-2.86,10.27-6.25,20.35-11.33,29.78a33.5,33.5,0,0,1-2.18,3.83c-1.14,1.59-2.37,4.05-4.64,2.82-2.44-1.32-1.6-4.09-.43-5.86,8.41-12.87,11.9-27.52,15.65-42.1a20.11,20.11,0,0,1,1.17-3.08c.64-1.39,1.47-2.64,3.28-2.35C232.59,111.23,233,112.28,233.13,115.87Z"/><path d="M367.37,508.48c-11.37-.07-25.19-12.26-26.5-23.24-.23-1.87-.92-4.51,1.75-5.11s3.2,2,3.77,3.84a28.7,28.7,0,0,0,10.79,15.53c3.72,2.66,7.81,4,12.45,2.93,2.05-.47,4.86-1.82,5.41,1.35.51,2.88-2.18,3.85-4.72,4.22C369.24,508.16,368.15,508.35,367.37,508.48Z"/><path d="M334.23,439.69c.33-10.82-2.06-19.7-3.76-28.67-.34-1.76-1.41-3.91,1-4.76s3.78,1.31,4.29,3.18A112.94,112.94,0,0,1,340,444.65c-.08,2-1.07,4.28-3.54,4.17-3-.13-2.2-2.77-2.26-4.66S334.23,440.13,334.23,439.69Z"/><path d="M396.38,264.82c-1.67,10.4-6.71,19.43-13.34,27.66-1.13,1.4-3.18,2.31-4.82.54-1.45-1.55-.23-3.11.74-4.44,6-8.25,11-16.9,11.65-27.43.08-1.32.44-2.74,1.92-3,1.84-.3,2.52,1.18,3,2.64C395.85,262,396.05,263.29,396.38,264.82Z"/><path d="M377.51,260.48c-.23-2.74-.39-5.5-.74-8.23-.2-1.51-.63-3.13,1.09-3.83,2-.82,3,.81,3.81,2.27,1.86,3.55,1.75,7.43,1.76,11.31,0,8.45-3.55,15.67-7.61,22.72-.8,1.38-2.07,3.14-3.89,2.38-2.16-.9-1.46-3.16-1-4.85a14.59,14.59,0,0,1,2.08-4.47A26.58,26.58,0,0,0,377.51,260.48Z"/><path d="M389.17,377.64a15.85,15.85,0,0,0,0-1.86c-.32-2.17-2.34-5.2,1-6,3.11-.78,4.05,2.43,4.77,4.91,1.69,5.78-.18,10.82-4.91,13.53-2.1,1.21-3.07-.39-3.93-1.71-2.28-3.48-2.86-7.91-6.25-10.81-.88-.75-.57-2.05.3-2.94,1.22-1.24,2.53-1.1,4-.37C386.35,373.46,387.07,376,389.17,377.64Z"/><path d="M349.62,315.15c7,.05,16.76,7.77,18,14.07.42,2.17.83,4.83-2,5.56-2.39.63-3-1.84-3.41-3.52-1.77-6.95-7.48-8.51-13.28-10-1.76-.46-4.14-.4-3.94-2.89C345.26,315.57,347.76,315.33,349.62,315.15Z"/><path d="M407.65,477.78c.12,3.9-.16,7.75-2.64,11-1,1.33-2.5,2.56-4.24,1.77-2-.91-1.49-2.78-.62-4.23,2.14-3.6,1.26-7.5,1.46-11.31.13-2.46-.51-6.22,2.65-6.35,3.61-.15,2.87,3.87,3.36,6.38A14,14,0,0,1,407.65,477.78Z"/><path d="M177.91,282.82c-.29,2.46.45,4.85-2,5.3-2.21.4-3.05-1.69-3.67-3.41-1.62-4.52-1.85-9.3-2.36-14a2.9,2.9,0,0,1,2.13-3.42c2.23-.52,2.94,1.21,3.31,2.81C176.34,274.53,177.15,279,177.91,282.82Z"/><path d="M259.64,127.76c-4.54,12.65-8.93,25.12-13.53,37.5-1.08,2.91-2.09,8-5.9,6.43-4.06-1.64-1-6,.35-8.66,8.27-16.39,11.42-34.57,18.29-51.42,1.32-3.24,2.36-6.61,4.67-9.34.88-1,1.94-1.8,3.36-1.07s1.32,2.09.86,3.35c-1.45,4-2.85,8-4.45,11.89-1.25,3-1.11,5.37,1.58,7.78,19.36,17.25,34.79,37.92,50.48,58.36,1.43,1.86,3.62,4.28,1.33,6.27s-4.4-.58-5.95-2.28a67,67,0,0,1-6.25-7.72C291.93,160.09,277.54,143,259.64,127.76Z"/><path d="M301.55,258.1c.86-2.57,1.64-5.21,2.6-7.79,6.35-17.06,12.68-34.13,19.17-51.14.83-2.18,1.52-6.13,4.72-4.85,3,1.18,1.08,4.54.24,6.83-7,19-14.64,37.71-20.56,57.08-.58,1.91-1.38,4.16-3.94,3.9C301.57,261.91,301.91,259.81,301.55,258.1Z"/><path d="M208.17,260.42a16.14,16.14,0,0,1,.77-4c5.82-15.12,9.28-30.92,13.38-46.54a10.75,10.75,0,0,1,.42-1.6c1.07-2.47,1.89-6.32,5.16-5.35,3.88,1.15,1.52,4.81.7,7-5.69,15.54-7.41,32.24-14.06,47.48a13.37,13.37,0,0,0-.81,6.46c.13,1.9,0,4.68-2.63,4.71s-2.78-2.5-2.92-4.58C208.13,263.28,208.17,262.54,208.17,260.42Z"/><path d="M272,118.55c2.17.48,3.57,2,5,3.38,8,7.64,14.74,16.42,21.46,25.19,4.14,5.39,7.71,11.25,13,15.66a6.18,6.18,0,0,1,1.66,2.18c.76,1.78,2.32,3.89,0,5.41-1.91,1.26-3.49-.34-4.68-1.78-4.1-5-8.2-9.94-12.19-15-7.63-9.65-14.48-20-24.17-27.86a9.24,9.24,0,0,1-2.69-4C268.77,119.7,269.94,118.6,272,118.55Z"/><path d="M269.88,275.46c-.29,2.48-1.94,2.68-3.95,1.94a13.55,13.55,0,0,1-6.35-5.13c-7.84-11.24-18.39-20-27.51-30a73.11,73.11,0,0,1-5.79-7.33c-.9-1.3-1.95-3-.25-4.46,1.87-1.56,3.63-.42,4.73,1.1,8.34,11.51,20.42,19.59,28.54,31.3a38.37,38.37,0,0,0,7.84,8.45C268.44,272.35,269.67,273.49,269.88,275.46Z"/><path d="M296,179.4c0,1.22.1,2.41-1.09,3a2.53,2.53,0,0,1-3-.71q-3.17-3.42-6.07-7.09c-7.42-9.35-14.86-18.65-24-26.49-2.28-2-6.43-4.92-3.07-8,2.84-2.58,5.49,1.54,7.43,3.74,8.59,9.78,18.73,18.16,26.27,28.9C293.94,174.9,295.6,176.85,296,179.4Z"/><path d="M332.28,212.18c3.31,1,2,3.09,1.32,4.89-3.9,9.69-7.91,19.34-11.75,29.06-2.09,5.27-4.81,10.31-5.9,15.94-.31,1.57-.88,2.95-2.79,2.67a3,3,0,0,1-2.53-3.18,10.75,10.75,0,0,1,.66-4.29c5.12-13,10.25-25.91,15.58-38.79C327.94,215.9,329.07,213,332.28,212.18Z"/><path d="M351.07,232.81a74.2,74.2,0,0,1-4.61,15.12c-.79,2-2,3.63,1,5.92,2.7,2.08-.25,5.69-1.47,8.39-1,2.33-3.13,5.78-5.3,4.56-2.52-1.42-5.74-4.9-4.63-8.25,3-9.23,6.9-18.2,10.51-27.23a2.23,2.23,0,0,1,3.14-1.39A2.51,2.51,0,0,1,351.07,232.81Z"/><path d="M276.05,216.1c-.07,2.36-1.17,3-2.93,2.65a9.56,9.56,0,0,1-5-3.21c-8.06-8.5-15.83-17.3-24.48-25.23-1.59-1.45-3.79-3.31-1.81-5.53,2.19-2.46,4.5-.42,6.13,1.2,9,8.91,17,18.66,26.44,27.15C275.28,213.92,275.63,215.31,276.05,216.1Z"/><path d="M241.13,224.63c2,.41,3.05,1.74,4.12,3,7.06,7.95,14.16,15.86,22.36,22.69,1.69,1.42,3.47,3.47,1.74,5.67s-3.73.27-5.15-.94a180.83,180.83,0,0,1-23.57-23.79,9.82,9.82,0,0,1-1.88-3.9C238.33,225.42,239.71,224.8,241.13,224.63Z"/><path d="M243.84,199.84c1.49,0,2.34,1,3.27,1.87a258.11,258.11,0,0,1,24.24,26.23c1.45,1.76,3.51,4.27,1,6.2-2.13,1.63-4.16-.6-5.43-2.34-6.64-9.06-14.75-16.79-22.28-25a9.08,9.08,0,0,1-2.55-4.17C241.74,201.07,242.28,200.1,243.84,199.84Z"/><path d="M258.41,275.2c0,2.17-1.1,3-3.17,2.37a11.3,11.3,0,0,1-4.85-3.51q-9.51-10.67-19-21.36a14,14,0,0,1-1.61-2.23c-1-1.78-2.2-3.82,0-5.37s3.33.55,4.48,1.88c4.32,5,8.49,10.1,12.87,15,2.8,3.15,5.87,6.05,8.82,9.05C257.08,272.24,258.31,273.37,258.41,275.2Z"/><path d="M321.64,256.12c3.55-8.61,7.57-18.47,11.7-28.28.67-1.59,2.07-2.8,4-1.87,1.72.83,1.33,2.47.89,3.88-.61,1.92-1.38,3.79-2.08,5.69-2.77,7.59-7.11,14.55-8.9,22.54-.4,1.81-1.26,3.75-3.61,3.41C321.44,261.16,321.56,259.29,321.64,256.12Z"/><path d="M272,197.61c-.8,2.9-2.92,2.15-4.94,1-3.6-2-5.66-5.69-8.51-8.52-3.63-3.61-6.94-7.54-10.21-11.49-1-1.18-2.16-3-.66-4.46,1.68-1.63,3.54-.49,4.82.86,3.16,3.31,6.11,6.83,9.22,10.19,2.61,2.82,4.78,6.06,8,8.33A5.23,5.23,0,0,1,272,197.61Z"/><path d="M277.73,175.54a6.37,6.37,0,0,1-4.4-2c-5.32-5.3-10.63-10.6-15.87-16a11.5,11.5,0,0,1-2-3.26c-.86-1.85-1.77-4.15.27-5.46s3.18,1,4.23,2.38A111.56,111.56,0,0,0,277.09,169c1.63,1.37,2.81,2.93,2.2,5.21A1.62,1.62,0,0,1,277.73,175.54Z"/><path d="M254.59,225.56a18.73,18.73,0,0,1,3,2.07c5.41,5.44,10.82,10.9,16.08,16.48,1.4,1.49,3.67,3.51,1.44,5.57-2.06,1.91-4,0-5.58-1.62-5.44-5.89-12.18-10.58-16.44-17.55C252,228.72,250.57,226.39,254.59,225.56Z"/><path d="M270.27,182.2c-.18,2-1.7,2.91-3.41,2-5.69-3.2-9.9-8.11-13.76-13.24-1.31-1.74.06-3.17,2.05-3.45C257.45,167.14,270.23,179.54,270.27,182.2Z"/><path d="M299.26,222.82c1.52-4.26,3.39-9.62,5.38-14.94a2.62,2.62,0,0,1,3-1.9c1.64.31,1.8,1.78,1.67,3-.61,6.08-2.72,11.73-5.23,17.24-.54,1.17-1.71,2.19-3.14,1.55S299.21,225.57,299.26,222.82Z"/></svg>